<svg xmlns="http://www.w3.org/2000/svg" fill="none" viewBox="0 0 144 33"><path fill="#ededf0" d="M8.89 25.68c3.12 0 4.69-1.6 5.37-2.7h.31a2.45 2.45 0 0 0 2.57 2.26h3.04V21.8h-.78c-.55 0-.82-.3-.82-.78V7.3h-4.04v2.19h-.31a6.4 6.4 0 0 0-5.44-2.64c-4.8 0-8.35 3.97-8.35 9.41s3.62 9.42 8.45 9.42m.72-3.9c-2.84 0-5.06-2.1-5.06-5.48 0-3.32 2.15-5.58 5.03-5.58 2.73 0 5.03 2.02 5.03 5.58 0 3.05-1.96 5.48-5 5.48m12.96 10.41h4.04v-9.21h.3c.76 1.1 2.37 2.7 5.55 2.7 4.79 0 8.28-4.04 8.28-9.41 0-5.41-3.73-9.42-8.55-9.42a6.3 6.3 0 0 0-5.31 2.6h-.3V7.3h-4.01zm9.04-10.3c-2.78 0-5.07-2.06-5.07-5.62 0-3.05 1.95-5.62 5-5.62 2.84 0 5.06 2.23 5.06 5.61 0 3.33-2.15 5.62-5 5.62M42.84 32.2h4.04v-9.21h.3c.76 1.1 2.36 2.7 5.55 2.7 4.79 0 7.95-4.04 7.95-9.41 0-5.41-3.4-9.42-8.23-9.42a6.3 6.3 0 0 0-5.3 2.6h-.31V7.3h-4zm9.03-10.3c-2.77 0-5.06-2.06-5.06-5.62 0-3.05 1.95-5.62 5-5.62 2.83 0 5.06 2.23 5.06 5.61 0 3.33-2.16 5.62-5 5.62m14.15 3.77h5.7l3.26-14.07h.2l3.26 14.07h5.68l4.55-17.94h-4.07l-3.25 14.1h-.31l-3.25-14.1H72.4l-3.28 14.11h-.31L65.59 7.71h-4.31zm24.7 0h4.03V16.8c0-3.4 1.58-5.48 4.52-5.48h1.78V7.27H99.7a5.3 5.3 0 0 0-4.72 3.08h-.27V7.7h-4zm30.37 0h3.15v-3.6h-3.12c-1.23 0-1.74-.54-1.74-1.8v-8.98h5.06V7.71h-5.06V2.68h-3.83V7.7h-3.36v3.56h3.12v9c0 3.8 2.29 5.38 5.78 5.38m13.98.03c3.73 0 7.02-1.85 8.18-5.58l-3.7-.89c-.65 1.99-2.53 3.01-4.51 3.01-2.95 0-4.9-1.91-4.93-4.93h13.59v-1.13c0-5.34-3.32-9.31-8.8-9.31-4.82 0-8.96 3.8-8.96 9.45 0 5.48 3.66 9.38 9.13 9.38m-4.93-11.33a4.65 4.65 0 0 1 4.76-3.97c2.47 0 4.49 1.54 4.69 3.97z"/><path fill="#ededf0" fill-rule="evenodd" d="M110.38 25.65h-4.03V11.27h-3.15V7.71h7.18z" clip-rule="evenodd"/><path fill="#ededf0" d="M108.07 5.22a2.5 2.5 0 0 0 2.56-2.53c0-1.4-1.1-2.5-2.56-2.5a2.5 2.5 0 0 0-2.57 2.5 2.5 2.5 0 0 0 2.57 2.53"/></svg>