<svg xmlns="http://www.w3.org/2000/svg" fill="none" viewBox="0 0 208 96"><g clip-path="url(#a)"><path fill="#fff" fill-opacity=".05" d="M182.9 13.53H25.1c-5.15 0-9.32 6.07-9.32 13.56v105.35c0 7.49 4.17 13.56 9.32 13.56h157.8c5.15 0 9.32-6.07 9.32-13.56V27.09c0-7.49-4.17-13.56-9.32-13.56"/><path stroke="#fff" stroke-opacity=".1" d="M182.54 14.24H24.74c-4.95 0-8.96 6.24-8.96 13.92v112.47c0 7.69 4.01 13.92 8.97 13.92h157.79c4.95 0 8.96-6.23 8.96-13.92V28.16c0-7.68-4.01-13.92-8.96-13.92Z"/><path fill="#fff" fill-opacity=".2" d="M39.09 29.2c0-3.93-3.21-7.12-7.17-7.12s-7.17 3.19-7.17 7.12 3.2 7.12 7.17 7.12a7.15 7.15 0 0 0 7.17-7.12"/><path stroke="#fff" stroke-opacity=".1" d="M38.73 29.2a6.8 6.8 0 0 0-6.81-6.77c-3.77 0-6.82 3.03-6.82 6.77s3.05 6.77 6.82 6.77 6.81-3.03 6.81-6.77Z"/><path fill="#fff" fill-opacity=".2" d="M164.6 44.87H27.62a2.86 2.86 0 0 0-2.87 2.85 2.86 2.86 0 0 0 2.87 2.85h137a2.86 2.86 0 0 0 2.87-2.85 2.86 2.86 0 0 0-2.87-2.85M77.1 26.35H48.4a2.86 2.86 0 0 0-2.87 2.85 2.86 2.86 0 0 0 2.87 2.85h28.7a2.86 2.86 0 0 0 2.86-2.85 2.86 2.86 0 0 0-2.87-2.85m21.52 0H87.15a2.86 2.86 0 0 0-2.87 2.85 2.86 2.86 0 0 0 2.87 2.85h11.47a2.86 2.86 0 0 0 2.87-2.85 2.86 2.86 0 0 0-2.87-2.85M84.28 56.26H27.6a2.86 2.86 0 0 0-2.87 2.85 2.86 2.86 0 0 0 2.87 2.85h56.67a2.86 2.86 0 0 0 2.87-2.85 2.86 2.86 0 0 0-2.87-2.85"/></g><defs><clipPath id="a"><path fill="#fff" d="M0 0h208v146H0z"/></clipPath></defs></svg>