<svg width="24" height="24" viewBox="0 0 24 24" xmlns="http://www.w3.org/2000/svg" preserveAspectRatio="xMidYMid"><path d="M0 20.905A3.095 3.095 0 0 0 3.095 24h17.81A3.095 3.095 0 0 0 24 20.905V3.095A3.095 3.095 0 0 0 20.905 0H3.095A3.095 3.095 0 0 0 0 3.095z" fill="#563D7C"/><path d="M9.952 10.616V7.217h2.992q.427 0 .824.071t.702.254.488.509.183.834q0 .916-.55 1.323-.549.407-1.404.407zM6.757 4.734v14.531h7.042q.977 0 1.903-.244t1.648-.753 1.15-1.313.427-1.903q0-1.364-.661-2.33-.661-.967-2.005-1.353.977-.468 1.476-1.201t.499-1.832q0-1.018-.336-1.71t-.946-1.109-1.465-.6-1.893-.183zm3.195 12.048v-3.989h3.48q1.038 0 1.669.478t.631 1.598q0 .57-.193.936t-.519.58-.753.305-.895.091z" fill="#FFF"/></svg>