<svg fill="#FFF" width="24" height="24" viewBox="0 0 0.42 0.42" aria-hidden="true" xmlns="http://www.w3.org/2000/svg"><path d="M.085.03a.1.1 0 0 0-.027.011L.043.055.032.078.03.084v.25L.032.34l.011.023q.013.016.032.023C.085.389.08.389.21.389s.125 0 .135-.003A.1.1 0 0 0 .377.363L.388.34.39.334V.085L.388.079.377.056.362.042.341.033.335.031.212.03zm.168.066Q.281.1.293.115l.01.019.001.017-.001.017a.05.05 0 0 1-.025.03L.274.201l.003.001.017.009q.016.012.02.034v.029q-.01.04-.056.05L.181.326H.12V.095h.063l.069.001M.173.162v.027h.029c.027 0 .029 0 .034-.002q.02-.006.02-.026 0-.016-.012-.022C.237.135.228.135.196.134H.174zm0 .094v.032h.032c.036 0 .037 0 .046-.005Q.266.276.266.257q0-.025-.022-.031L.207.224H.174z"/></svg>