<svg xmlns="http://www.w3.org/2000/svg" fill="none" viewBox="0 0 21 22"><g clip-path="url(#a)"><path fill="url(#b)" d="m17.54 3.52-2.6 2.53a.5.5 0 0 1-.62.07 6.3 6.3 0 0 0-3.38-.86 6.1 6.1 0 0 0-4.86 2.58 6 6 0 0 0-1.1 3.24 6 6 0 0 0 .88 3.3.5.5 0 0 1-.08.62L3.2 17.53a.5.5 0 0 1-.4.14.5.5 0 0 1-.37-.2 10.4 10.4 0 0 1-2.06-6.49 10.4 10.4 0 0 1 2.42-6.36 11 11 0 0 1 1.54-1.5 10.97 10.97 0 0 1 13.16-.36.5.5 0 0 1 .21.37.5.5 0 0 1-.15.4"/><path fill="#fff" d="m17.54 19.03-2.6-2.53a.5.5 0 0 0-.62-.07c-.96.56-2.06.86-3.19.86a6.3 6.3 0 0 1-3.18-.86.5.5 0 0 0-.63.07l-2.59 2.53a.5.5 0 0 0-.15.4.5.5 0 0 0 .2.37 10.96 10.96 0 0 0 12.69 0 .5.5 0 0 0 .22-.37.5.5 0 0 0-.15-.4m-6.4-4.75c1.7 0 3.08-1.34 3.08-3s-1.38-3.01-3.08-3.01-3.08 1.34-3.08 3 1.38 3.01 3.08 3.01"/></g><defs><linearGradient id="b" x1="15.1" x2="-6.21" y1="-.8" y2="21.04" gradientUnits="userSpaceOnUse"><stop stop-color="#17ccfc"/><stop offset=".5" stop-color="#5d31ff"/><stop offset="1" stop-color="#f35aff"/></linearGradient><clipPath id="a"><path fill="#fff" d="M.35.75h20.02V21.8H.35z"/></clipPath></defs></svg>