<svg xmlns="http://www.w3.org/2000/svg" fill="none" viewBox="0 0 131 28"><path fill="#fff" d="M10.03 4.3a6.1 6.1 0 0 1 4.81 2.38.25.25 0 0 0 .36.04l2.03-1.62a.25.25 0 0 0 .03-.35 9.2 9.2 0 0 0-7.32-3.6C4.64 1.15.35 5.71.35 11.32S4.66 21.5 9.95 21.5a9.2 9.2 0 0 0 7.31-3.6.25.25 0 0 0-.04-.35l-2.03-1.6a.25.25 0 0 0-.35.04 6.1 6.1 0 0 1-4.82 2.37c-3.62 0-6.45-3.1-6.45-7.03S6.41 4.3 10.02 4.3M19.88.57h2.54a.25.25 0 0 1 .25.25V21a.25.25 0 0 1-.25.25h-2.54a.25.25 0 0 1-.25-.26V.82a.25.25 0 0 1 .25-.25m11.46 6.98a6.64 6.64 0 0 0-6.78 6.95c0 4 2.92 7.03 6.78 7.03s6.81-3.03 6.81-7.03-2.93-6.95-6.81-6.95m3.74 6.95c0 2.31-1.6 4.06-3.74 4.06s-3.7-1.75-3.7-4.06 1.59-3.98 3.7-3.98 3.74 1.7 3.74 3.98m16.78-6.66H49.3a.25.25 0 0 0-.25.25v6.74c0 2.64-1.82 3.57-3.38 3.57-1.37 0-2.76-1.04-2.76-3.36V8.09a.25.25 0 0 0-.26-.25h-2.54a.25.25 0 0 0-.25.25v7.28c0 3.99 1.81 6.19 5.1 6.19 1.19 0 3.12-.69 3.85-2.2l.24.05v1.58a.25.25 0 0 0 .25.25h2.55a.25.25 0 0 0 .25-.25V8.09a.3.3 0 0 0-.16-.23zM67.48.57h-2.54a.25.25 0 0 0-.25.25v9.02l-.15-.25c-.78-1.25-2.44-2.06-4.25-2.06-3.11 0-6.26 2.4-6.26 6.98 0 4 2.7 7 6.29 7 1.36 0 3.28-.54 4.22-2.07l.15-.26v1.8a.25.25 0 0 0 .25.26h2.55a.25.25 0 0 0 .25-.25V.82a.25.25 0 0 0-.25-.25M64.64 14.5a3.9 3.9 0 0 1-3.82 4.03c-2.08 0-3.72-1.77-3.72-4.03s1.63-3.98 3.72-3.98a3.9 3.9 0 0 1 3.8 3.98zm6.65-6.66h2.54a.25.25 0 0 1 .25.25v12.9a.25.25 0 0 1-.25.25h-2.54a.25.25 0 0 1-.26-.26V8.08a.25.25 0 0 1 .26-.24M72.57.98a2 2 0 0 0-2.02 1.98 2 2 0 0 0 2.02 1.98 1.97 1.97 0 0 0 2-1.98 1.95 1.95 0 0 0-2-1.98m11.98 6.57c-1.11 0-3.1.6-3.85 2.2l-.24-.06V8.1a.25.25 0 0 0-.26-.25h-2.54a.25.25 0 0 0-.25.25v12.9a.25.25 0 0 0 .25.25h2.54a.25.25 0 0 0 .26-.25v-6.75c0-2.61 1.81-3.55 3.37-3.55 1.38 0 2.77 1.03 2.77 3.34v6.96a.25.25 0 0 0 .25.25h2.55a.25.25 0 0 0 .25-.25V13.7c0-3.97-1.81-6.16-5.1-6.16m20.3.29h-2.55a.3.3 0 0 0-.17.07.3.3 0 0 0-.08.18v1.77l-.15-.25c-.78-1.24-2.45-2.05-4.26-2.05-3.11 0-6.26 2.4-6.26 6.98 0 4 2.7 7 6.28 7 1.36 0 3.29-.54 4.22-2.08l.16-.25v1.78a.25.25 0 0 0 .25.25h2.54a.25.25 0 0 0 .25-.25V8.09a.25.25 0 0 0-.23-.25M102 14.5a3.9 3.9 0 0 1-2.33 3.7 4 4 0 0 1-1.5.33c-2.09 0-3.71-1.78-3.71-4.03s1.62-3.98 3.7-3.98A3.9 3.9 0 0 1 102 14.5zm14.44-6.62a5 5 0 0 0-1.83-.35c-1.69 0-2.92 1-3.55 2.93l-.22-.04V8.08l-.02-.1a.2.2 0 0 0-.14-.13l-.1-.01h-2.54a.25.25 0 0 0-.25.24v12.9a.25.25 0 0 0 .25.26h2.57a.3.3 0 0 0 .23-.16l.02-.1v-4.4c0-5.25 2.1-6.03 3.35-6.03q.8 0 1.54.32a.3.3 0 0 0 .22 0 .2.2 0 0 0 .13-.17l.5-2.53a.3.3 0 0 0-.03-.17.3.3 0 0 0-.13-.12m14.11.07a.3.3 0 0 0-.2-.11h-2.75a.3.3 0 0 0-.23.16l-3.31 8.58L120.72 8a.3.3 0 0 0-.23-.16h-2.8a.25.25 0 0 0-.23.34l4.98 12.21-2.75 7.13-.02.13a.25.25 0 0 0 .25.23h2.67q.07 0 .14-.04a.2.2 0 0 0 .09-.12l7.76-19.53a.3.3 0 0 0-.02-.24"/></svg>