<svg xmlns="http://www.w3.org/2000/svg" fill="none" viewBox="0 0 43 29"><path fill="#fff" d="M34.78 10.48A14.3 14.3 0 0 0 21.22.5 14.1 14.1 0 0 0 8.74 7.91a10.6 10.6 0 0 0-8.66 9.1A10.6 10.6 0 0 0 6.18 28l.27.12h.01V25.1a7.92 7.92 0 0 1 3.3-14.62l.75-.07.33-.68A11.4 11.4 0 0 1 21.22 3.2a11.6 11.6 0 0 1 11.2 8.88l.26 1.01h1.07a6.6 6.6 0 0 1 6.45 6.56c0 2.5-1.45 4.55-3.91 5.59v2.86l.18-.06c3.95-1.3 6.41-4.51 6.41-8.4a9.3 9.3 0 0 0-8.1-9.15"/><path fill="#fff" d="m16.01 27.77.6.59a.12.12 0 0 1-.09.2h-4.65a2.13 2.13 0 0 1-2.13-2.13v-9.04a.12.12 0 0 0-.12-.11h-1a.12.12 0 0 1-.11-.14l.03-.06 3.95-3.95a.12.12 0 0 1 .17 0l3.94 3.95a.12.12 0 0 1-.08.2h-1a.12.12 0 0 0-.13.11v8.88c0 .56.23 1.1.62 1.5m8.73 0 .6.59a.12.12 0 0 1-.1.2h-4.63a2.13 2.13 0 0 1-2.14-2.13v-6.75a.12.12 0 0 0-.11-.12h-1a.1.1 0 0 1-.11-.08.1.1 0 0 1 .02-.12l3.95-3.94.08-.04.08.03 3.95 3.94a.12.12 0 0 1-.08.2h-1.01a.12.12 0 0 0-.12.12v6.6c0 .56.22 1.1.62 1.5m8.73 0 .59.59a.12.12 0 0 1-.08.2h-4.66a2.13 2.13 0 0 1-2.13-2.13v-4.49a.12.12 0 0 0-.12-.11h-1a.12.12 0 0 1-.1-.15l.03-.06 3.95-3.94a.1.1 0 0 1 .12-.03l.04.03 3.95 3.94a.1.1 0 0 1 .03.13.1.1 0 0 1-.11.08h-1.01a.12.12 0 0 0-.12.11v4.33c0 .56.22 1.1.62 1.5"/></svg>