<svg xmlns="http://www.w3.org/2000/svg" fill="none" viewBox="0 0 107 27"><path fill="#fff" d="M106 23.44a2.26 2.26 0 0 1-2.3 2.3c-1.3 0-2.3-1.02-2.3-2.3 0-1.29 1.02-2.27 2.3-2.27s2.3 1.01 2.3 2.27m-4.03 0c0 1 .73 1.8 1.75 1.8s1.7-.8 1.7-1.79c0-1-.72-1.82-1.72-1.82s-1.73.81-1.73 1.8m1.38 1.19h-.52v-2.27q.3-.06.86-.07c.42 0 .61.07.78.17a.6.6 0 0 1 .22.5c0 .24-.2.44-.47.52v.03q.32.11.41.55c.07.34.11.48.17.57h-.56q-.09-.15-.18-.56-.05-.37-.47-.36h-.24zm.01-1.29h.25c.28 0 .52-.1.52-.33 0-.2-.15-.35-.48-.35q-.2 0-.29.03zM17.95.51a1.6 1.6 0 0 0-1.17-.48q-.7 0-1.17.48-.46.49-.46 1.21v8.1a8.3 8.3 0 0 0-5.51-2q-3.65 0-6.22 2.66Q.84 13.15.84 16.91c0 3.76.86 4.65 2.58 6.43Q5.99 26 9.64 26.01c3.65 0 4.47-.9 6.22-2.67a8.8 8.8 0 0 0 2.57-6.43V1.72q0-.73-.48-1.2M14.72 19.1v.01a6 6 0 0 1-1.18 1.81 6 6 0 0 1-1.75 1.23 5.21 5.21 0 0 1-4.32 0 6 6 0 0 1-1.74-1.22 6 6 0 0 1-1.17-1.8 6 6 0 0 1-.43-2.22q0-1.17.43-2.2a5.6 5.6 0 0 1 2.91-3.04 5 5 0 0 1 2.17-.46q1.16 0 2.15.46a6 6 0 0 1 1.75 1.23q.74.78 1.18 1.8.43 1.04.43 2.2 0 1.18-.43 2.2m75.87-5.68a9 9 0 0 0-1.93-2.92l-.01-.01a8.4 8.4 0 0 0-6.22-2.66q-3.63 0-6.22 2.66-2.58 2.65-2.58 6.43c0 3.78.86 4.65 2.58 6.43A8.4 8.4 0 0 0 82.43 26q3.3 0 5.74-2.2.48-.51.48-1.22 0-.73-.47-1.21a1.6 1.6 0 0 0-1.16-.48q-.62.02-1.08.42-.75.65-1.6.98a5 5 0 0 1-1.9.32 5 5 0 0 1-1.75-.29 6 6 0 0 1-1.54-.82 6 6 0 0 1-1.22-1.27 6 6 0 0 1-.78-1.63h12.43a1.63 1.63 0 0 0 1.65-1.69 9 9 0 0 0-.64-3.5zm-13.45 1.81a5.5 5.5 0 0 1 1.99-2.9 6 6 0 0 1 1.55-.82 5 5 0 0 1 1.75-.3q.9 0 1.73.3a5.52 5.52 0 0 1 2.76 2.09 6 6 0 0 1 .8 1.63zm28.73-6.27a3 3 0 0 0-1.1-.69 6 6 0 0 0-1.47-.34 12 12 0 0 0-1.48-.1q-1.57 0-2.95.52a9 9 0 0 0-2.57 1.5v-.33q0-.7-.48-1.19a1.6 1.6 0 0 0-1.15-.5q-.67 0-1.17.5c-.5.5-.48.73-.48 1.19v14.8q0 .7.48 1.2.48.49 1.17.5.7-.01 1.15-.5.49-.51.48-1.2v-7.4a5.8 5.8 0 0 1 1.61-4.04 6 6 0 0 1 1.75-1.21 5.68 5.68 0 0 1 4.3-.04q.4.18.7.18.34 0 .64-.14.3-.13.52-.36t.35-.54.13-.67q0-.7-.44-1.14zm-68.64 4.47a9 9 0 0 0-1.93-2.94q-2.6-2.66-6.22-2.66c-3.62 0-4.5.88-6.22 2.66q-2.57 2.65-2.57 6.43c0 3.78.86 4.65 2.57 6.43A8.4 8.4 0 0 0 29.08 26c2.44 0 4.48-.88 6.22-2.66a8.8 8.8 0 0 0 2.58-6.43q-.02-1.89-.65-3.5m-3.07 5.67v.02a6 6 0 0 1-1.17 1.8 6 6 0 0 1-1.75 1.24 5.22 5.22 0 0 1-4.32 0 6 6 0 0 1-1.74-1.23 6 6 0 0 1-1.17-1.8 6 6 0 0 1-.43-2.22q0-1.17.43-2.2a5.6 5.6 0 0 1 2.91-3.04 5 5 0 0 1 2.17-.46q1.16 0 2.15.46A6 6 0 0 1 33 12.9q.75.78 1.17 1.81.44 1.03.44 2.2 0 1.16-.44 2.2M72.4 9.5q0-.33-.13-.64a2 2 0 0 0-.35-.55 2 2 0 0 0-.52-.36 2 2 0 0 0-.64-.13q-.5 0-.88.25l-9.39 6.32V1.73q0-.71-.48-1.2a1.6 1.6 0 0 0-2.32 0 1.7 1.7 0 0 0-.48 1.2V24.3q0 .7.48 1.2.47.5 1.17.5.69 0 1.15-.5.48-.5.48-1.2v-5.86l1.92-1.3 7.25 8.42q.44.44 1.1.44a1.6 1.6 0 0 0 1.16-.5q.22-.23.36-.54t.13-.65q0-.66-.46-1.18l-6.75-7.86 6.58-4.42q.63-.44.62-1.35zM44.6 12.9a6 6 0 0 1 1.77-1.22 5 5 0 0 1 2.15-.45q1.03 0 1.92.36.87.37 1.67 1.05.48.39 1.07.4.71 0 1.17-.5.47-.48.47-1.2 0-.76-.57-1.29-2.42-2.2-5.73-2.2-3.64-.01-6.22 2.66-2.58 2.65-2.57 6.42c0 3.77.86 4.65 2.57 6.43a8.4 8.4 0 0 0 6.22 2.67q3.3 0 5.73-2.21.52-.54.52-1.25c0-.71-.15-.9-.46-1.21a1.6 1.6 0 0 0-1.17-.48 1.7 1.7 0 0 0-1.04.35 6 6 0 0 1-1.66 1.05 5 5 0 0 1-1.92.35 5 5 0 0 1-2.15-.45 6 6 0 0 1-1.76-1.21 6 6 0 0 1-1.19-1.81 6 6 0 0 1-.43-2.23q0-1.18.43-2.22a6 6 0 0 1 1.19-1.81z"/></svg>