<svg xmlns="http://www.w3.org/2000/svg" fill="none" viewBox="0 0 45 36"><path fill="#1d63ed" d="M44.27 14.79c-1.1-.75-4-1.07-6.11-.5-.11-2.12-1.2-3.92-3.18-5.48l-.73-.5-.49.75a8.6 8.6 0 0 0-1.22 5.23c.11 1.1.49 2.34 1.22 3.24-2.74 1.62-5.27 1.25-16.47 1.25H.01c-.06 2.56.35 7.5 3.44 11.5q.52.67 1.13 1.3c2.51 2.54 6.31 4.41 12 4.42 8.66 0 16.08-4.74 20.6-16.22 1.49.02 5.41.27 7.33-3.5.05-.06.49-.99.49-.99zm-32.98-2.34H6.43v4.92h4.86zm6.28 0H12.7v4.92h4.86zm6.28 0h-4.86v4.92h4.86zm6.28 0h-4.86v4.92h4.86zM5 12.45H.14v4.92h4.87zm6.28-6.23H6.43v4.93h4.86zm6.28 0H12.7v4.93h4.86zm6.28 0h-4.86v4.93h4.86zm0-6.22h-4.86v4.93h4.86z"/></svg>