<svg xmlns="http://www.w3.org/2000/svg" fill="none" viewBox="0 0 95 87"><path fill="#fff" d="M86.46 87c-9.86-7.03-23.37-11.38-38.3-11.38-14.89 0-28.4 4.35-38.26 11.38z"/><path fill="url(#a)" d="M90.75 82.93c-1.96.27-28.02 0-28.02 0l-.61-2.72-2.37-10.72s9.6.48 9-.24c-.59-.7-1.64-11.74-6.98-13.4s-13.6-1.92-13.6-1.92V32.98l7.62-5.12c3.7 4.3 23.38 15.27 25.77 20.52 2.4 5.23 11.8 18.56 12.66 23.79.88 5.25-1.52 10.52-3.47 10.76"/><path fill="url(#b)" d="M90.75 82.94c-1.96.26-28.02 0-28.02 0l-.61-2.73c4.83-.2 11.9-.57 18.4-1.12 11.3-.97 13.7-6.92 13.7-6.92.88 5.25-1.52 10.52-3.47 10.76" style="mix-blend-mode:multiply"/><path fill="url(#c)" d="M86.46 69.86s-5.89-12.8-11.86-16.08l1.89 14.72z" style="mix-blend-mode:multiply"/><path fill="#00042d" d="M74.6 71.11s8.24-2.54 15.68 1.15c0 0-1.89-3.74-9.82-5.36 0 0-5.05-16.64-11.03-17.4-5.97-.8-6.28 22.76-6.28 22.76z"/><path fill="url(#d)" d="M38.61 27.86c-3.69 4.3-23.37 15.27-25.77 20.52C10.44 53.6 1.04 66.94.2 72.17-.7 77.42 1.7 82.69 3.66 82.93c1.95.27 28 0 28 0l3-13.44s-9.6.48-9.01-.24c.6-.7 1.65-11.73 6.99-13.4s13.6-1.92 13.6-1.92V32.98z"/><path fill="url(#e)" d="M3.66 82.94c1.95.26 28 0 28 0l.63-2.73c-4.84-.2-11.91-.57-18.41-1.12-11.3-.97-13.7-6.92-13.7-6.92-.87 5.25 1.52 10.52 3.48 10.76" style="mix-blend-mode:multiply"/><path fill="url(#f)" d="M7.94 69.86s5.89-12.8 11.86-16.08L17.92 68.5z" style="mix-blend-mode:multiply"/><path fill="#00042d" d="M20.5 71.11s-8.23-2.54-15.68 1.15c0 0 1.9-3.74 9.8-5.36 0 0 5.05-16.64 11.05-17.4 5.98-.8 6.26 22.76 6.26 22.76z"/><path fill="url(#g)" d="M67 27.07c-.29 6.21-1.37 19.33-5.74 22.89-3.27 2.66-9.2.99-13.64.99-5.19 0-10.44 2.5-13.9-1-3.52-3.5-5.24-17.43-5.48-22.88a21.36 21.36 0 0 1 38.75 0"/><path fill="url(#h)" d="M29.1 20.9c0 9.13 2.33 18.71 4.15 22.95 1.85 4.24 7.96 11.95 14.4 13.1 6.43 1.14 12.73-8.2 14.76-13.74C65.7 34.3 66 19.66 66 19.66s-10.5-9.56-20.32-8.65c-9.8.87-16.59 9.88-16.59 9.88" style="mix-blend-mode:multiply"/><path fill="#00042d" d="M33.08 18.65c0 7.08 1.82 14.48 3.27 17.76 1.43 3.29 5.47 10.15 11.27 10.15 5.12 0 10-6.36 11.58-10.62 2.59-6.92 2.83-18.25 2.83-18.25s-8.24-7.39-15.93-6.7c-7.7.68-13.02 7.66-13.02 7.66"/><path fill="url(#i)" d="M47.62 0c-7.14 0-19.4 14.76-19.4 26.08q0 .5.02.99a21.36 21.36 0 0 1 38.76 0q.02-.49.02-1C67.02 14.78 55 0 47.62 0"/><path fill="#fff" d="M70.93 81.75H24.31a4.24 4.24 0 0 1-4.22-3.9l-2.63-30.29a4.24 4.24 0 0 1 4.21-4.61h51.9c2.5 0 4.43 2.13 4.24 4.61l-2.64 30.3a4.26 4.26 0 0 1-4.24 3.89"/><path fill="url(#j)" d="M70.93 83.07H24.31a4.24 4.24 0 0 1-4.22-3.9l-2.63-30.29a4.24 4.24 0 0 1 4.21-4.61h51.9c2.5 0 4.43 2.13 4.24 4.61l-2.64 30.3a4.26 4.26 0 0 1-4.24 3.89"/><g style="mix-blend-mode:multiply"><path fill="url(#k)" d="M24.24 44.27h-2.57a4.24 4.24 0 0 0-4.21 4.61l2.63 30.3a4.24 4.24 0 0 0 4.22 3.89h1.82z"/><path fill="url(#l)" d="M73.57 44.27H71l-1.9 38.8h1.83a4.26 4.26 0 0 0 4.24-3.9l2.63-30.29a4.25 4.25 0 0 0-4.24-4.61"/></g><defs><linearGradient id="a" x1="7.54" x2="66.96" y1="84.7" y2="-24.93" gradientUnits="userSpaceOnUse"><stop stop-color="#ff00c1"/><stop offset="1" stop-color="#f4ac24"/></linearGradient><linearGradient id="b" x1="69.88" x2="79.98" y1="86.58" y2="64.36" gradientUnits="userSpaceOnUse"><stop stop-color="#f4d63b" stop-opacity="0"/><stop offset="1" stop-color="#5c1cb2"/></linearGradient><linearGradient id="c" x1="94.74" x2="90.88" y1="50.43" y2="73.05" gradientUnits="userSpaceOnUse"><stop stop-color="#f4d63b" stop-opacity="0"/><stop offset="1" stop-color="#5c1cb2"/></linearGradient><linearGradient id="d" x1="-23.02" x2="18.11" y1="52.2" y2="-23.7" gradientUnits="userSpaceOnUse"><stop stop-color="#ff00c1"/><stop offset="1" stop-color="#f4ac24"/></linearGradient><linearGradient id="e" x1="24.53" x2="14.42" y1="86.58" y2="64.36" gradientUnits="userSpaceOnUse"><stop stop-color="#f4d63b" stop-opacity="0"/><stop offset="1" stop-color="#5c1cb2"/></linearGradient><linearGradient id="f" x1="-.34" x2="3.53" y1="50.43" y2="73.05" gradientUnits="userSpaceOnUse"><stop stop-color="#f4d63b" stop-opacity="0"/><stop offset="1" stop-color="#5c1cb2"/></linearGradient><linearGradient id="g" x1="-3.03" x2="44.94" y1="75.39" y2="-13.13" gradientUnits="userSpaceOnUse"><stop stop-color="#ff00c1"/><stop offset="1" stop-color="#f4ac24"/></linearGradient><linearGradient id="h" x1="14.2" x2="18.55" y1="55.26" y2="13.03" gradientUnits="userSpaceOnUse"><stop stop-color="#f4d63b" stop-opacity="0"/><stop offset="1" stop-color="#5c1cb2"/></linearGradient><linearGradient id="i" x1="-2.75" x2="44.61" y1="75.51" y2="-11.88" gradientUnits="userSpaceOnUse"><stop stop-color="#ff00c1"/><stop offset="1" stop-color="#f4ac24"/></linearGradient><linearGradient id="j" x1="75.33" x2="52.24" y1="43.74" y2="103.27" gradientUnits="userSpaceOnUse"><stop stop-color="#a76dfc"/><stop offset="1" stop-color="#5c1cb2"/></linearGradient><linearGradient id="k" x1="109.75" x2="108.02" y1="48.3" y2="85.08" gradientUnits="userSpaceOnUse"><stop stop-color="#fff" stop-opacity="0"/><stop offset="1" stop-color="#5c1cb2"/></linearGradient><linearGradient id="l" x1="161.31" x2="159.59" y1="50.64" y2="87.22" gradientUnits="userSpaceOnUse"><stop stop-color="#fff" stop-opacity="0"/><stop offset="1" stop-color="#5c1cb2"/></linearGradient></defs></svg>