<svg xmlns="http://www.w3.org/2000/svg" fill="none" viewBox="0 0 98 97"><path fill="url(#a)" d="M71.45 4.28 68.97 0l-2.48 4.28-2.48 4.3h2.56V62.1h4.8V8.59h2.55z"/><path fill="url(#b)" d="m81.6 20.11-2.47-4.28-2.48 4.28-2.48 4.29h2.57v44.55h4.78V24.4h2.57z"/><path fill="url(#c)" d="M61.4 13.04v37.44l-47.3 26.1-1.66-1.51v-35z"/><path fill="url(#d)" d="M59.44 16.36v32.96l-.09.04-12.18 6.72-32.77 18.1V41.24l2.77-1.53 12.18-6.72 1.66-.93 4.49-2.47z"/><path fill="url(#e)" d="M90.66 66.69 45.85 94.34l-3.26-.1-24.71-13.71.25-.26-4.03-3.7 47.3-26.11 4.65 2.58 3.1 1.72 5.25 2.9 3.1 1.72 5.24 2.92 3.09 1.72z"/><path fill="url(#f)" d="M16.5 77.5 61.4 52.7l25.37 14.1-42.44 26.18z"/><path fill="url(#g)" d="m53.05 77.84 13.78-8.32 8.14 4.52-13.6 8.4z"/><path fill="url(#h)" d="m42.6 94.24-2.02-.07-23.4-12.97.7-.68z"/><path fill="url(#i)" d="M90.66 66.69v1.22L47.51 94.38l-1.66-.04z"/><path fill="url(#j)" d="m59.35 49.37-12.18 6.72-30-16.38 12.17-6.72z" style="mix-blend-mode:screen"/><path fill="url(#k)" d="M59.44 42.65v4.95L31 32.06l4.49-2.47z" style="mix-blend-mode:screen"/><path fill="url(#l)" d="M46.33 92.87a35.41 35.41 0 1 1 1.75-70.78l5.37-2.96A38.98 38.98 0 1 0 80.83 75.6l-7.26 4.45a35.3 35.3 0 0 1-27.24 12.81"/><defs><linearGradient id="a" x1="263.53" x2="263.53" y1="-21.24" y2="61.71" gradientUnits="userSpaceOnUse"><stop stop-color="#ffad4b"/><stop offset="1" stop-color="#77007c"/></linearGradient><linearGradient id="b" x1="221.63" x2="221.63" y1="11.35" y2="74.35" gradientUnits="userSpaceOnUse"><stop stop-color="#ffad4b"/><stop offset="1" stop-color="#77007c"/></linearGradient><linearGradient id="c" x1="12.44" x2="61.4" y1="13.04" y2="13.04" gradientUnits="userSpaceOnUse"><stop stop-color="#461885"/><stop offset="1" stop-color="#aa51e0"/></linearGradient><linearGradient id="d" x1="95.64" x2="44.75" y1="52.78" y2="103.16" gradientUnits="userSpaceOnUse"><stop stop-color="#ffad4b"/><stop offset="1" stop-color="#77007c"/></linearGradient><linearGradient id="e" x1="14.1" x2="90.65" y1="50.46" y2="50.46" gradientUnits="userSpaceOnUse"><stop stop-color="#461885"/><stop offset="1" stop-color="#aa51e0"/></linearGradient><linearGradient id="f" x1="92.15" x2="49.71" y1="69.95" y2="103.68" gradientUnits="userSpaceOnUse"><stop stop-color="#aa51e0"/><stop offset="1" stop-color="#461885"/></linearGradient><linearGradient id="g" x1="48.92" x2="77.8" y1="55.13" y2="77.12" gradientUnits="userSpaceOnUse"><stop stop-color="#aa51e0"/><stop offset="1" stop-color="#461885"/></linearGradient><linearGradient id="h" x1="26.18" x2="26.18" y1="95.15" y2="81.84" gradientUnits="userSpaceOnUse"><stop stop-color="#aa51e0"/><stop offset="1" stop-color="#461885"/></linearGradient><linearGradient id="i" x1="72.93" x2="94.49" y1="64.42" y2="77.06" gradientUnits="userSpaceOnUse"><stop stop-color="#461885"/><stop offset="1" stop-color="#aa51e0"/></linearGradient><linearGradient id="j" x1="18.46" x2="65.75" y1="18.61" y2="44.61" gradientUnits="userSpaceOnUse"><stop stop-color="#ffad4b"/><stop offset="1" stop-color="#77007c" stop-opacity="0"/></linearGradient><linearGradient id="k" x1="32.09" x2="65.12" y1="19.21" y2="37.38" gradientUnits="userSpaceOnUse"><stop stop-color="#ffad4b"/><stop offset="1" stop-color="#77007c" stop-opacity="0"/></linearGradient><linearGradient id="l" x1="7.34" x2="80.83" y1="18.47" y2="18.47" gradientUnits="userSpaceOnUse"><stop stop-color="#ffad4b"/><stop offset="1" stop-color="#77007c"/></linearGradient></defs></svg>