<svg xmlns="http://www.w3.org/2000/svg" fill="none" viewBox="0 0 123 87"><path fill="#00042d" fill-rule="evenodd" d="M40.38 5c-1.7 2.65-2.5 5.97-3.26 9.19-.56 2.3-2.16 10.19-2.34 16.05l-1.05.23a35 35 0 0 0-5.26 1.6l-.77.31q-.68.3-1.26.6l-.02.03h-.02c-.54.32-2.16 1.46-5.49 5.71l-.02.02-.02.03A175 175 0 0 0 9.76 55.25C.65 70.2-.16 75.73.02 78.6v.03l.04.4c.41 3.46 3.04 5.91 7.11 6.61 2.7.88 6.05 1.35 9.74 1.35q2.17-.01 4.47-.22l2.72-.25c9.45-.83 27.19-2.25 27.37-2.27l.74-.07.6-.45c9.7-7.4 10.2-8.8 10.44-9.47l1.15-3.14-3.35-.27c-.1 0-9.5-.75-25.05-2.82q-.79-.09-2.25-.09c-1.75 0-4.86.12-8.3.52q.43-.16.88-.27c2.34-.67 4.36-2.2 5.71-4.27 2.61-4.07 4.07-7.22 4.48-9.62.09-.57.36-2.23-.68-8.01h.2c.8.09 1.76.18 2.81.18 6.75 0 11.54-4.18 14.62-12.77 2.43-6.84 5.15-11.16 8.07-12.84a8 8 0 0 1 3.94-.88q.54 0 1.1.05c.95.06 1.8.22 2.5.38a7.4 7.4 0 0 0-1.8 3.78c-.34 2.45-.9 4.67-1.42 5.87-.56 1.23-.9 2.36-1.2 3.35-.5 1.73-.82 2.67-1.77 3.53q-4.21 3.88-6.32 3.9c-.33 0-.65-.06-1.12-.22l-4.38-1.48 1.07 4.5c.1.31.88 3.19 4.64 4.2h.02q1.53.4 3.06.4l3.12.19a3.64 3.64 0 0 1 3.4 3.46c.54 12.6-.02 16.1-.25 16.95-.5 1.13-4.27 8.82-5.78 11.45q-.65 1.13-1.41 2.34l-2.48 3.91h15.52l.15-2.4c0-.03.14-2.05.27-5.04 3.76 3.05 6.64 5.35 6.68 5.4l1.15.92 1.4-.54c.13-.07 3.52-1.42 6.94-2.95a59 59 0 0 0 4.84-2.43c1.32-.74 3.75-2.13 3.14-4.5-.4-1.64-6.32-10.95-8.14-13.78-2.4-3.76-8.36-12.88-11.58-16.57a35 35 0 0 0-4.25-4.1 35 35 0 0 0 3.58-6.11c1.8-3.87 3.1-10.6 2.16-13.79v-.04l-.03-.02s-.06-.25-.22-.68a49 49 0 0 0-1.1-2.72c-1.04-2.36-2.45-5.55-4.7-7.76C66.29 3.64 57.97.11 50 0h-.23q-6.2 0-9.4 5m9.6-2.46c7.63.11 15.32 3.69 20.51 8.73 1.9 1.84 3.2 4.79 4.14 6.94a50 50 0 0 1 1.03 2.59q.2.56.2.58c.68 2.3-.26 8.24-2.02 12.01-.7 1.5-2.36 4.86-4.95 7.67a27 27 0 0 1 6.03 5.28c5.08 5.8 18.8 27.82 19.16 29.28.36 1.44-13.4 6.88-13.4 6.88s-5.04-4.02-10.57-8.56a720 720 0 0 1-.52 10.05h-8.5q.77-1.2 1.46-2.43a241 241 0 0 0 6-11.85c.86-2.83.64-11.94.37-17.92a6.17 6.17 0 0 0-5.76-5.9c-1.55-.08-2.94-.17-3.3-.17q-1.16-.01-2.43-.32c-2.4-.67-2.81-2.36-2.81-2.36.6.2 1.23.36 1.95.36 1.8 0 4.14-.97 8.05-4.56 2.3-2.14 2.14-4.6 3.56-7.72a27 27 0 0 0 1.64-6.54 4.6 4.6 0 0 1 4.5-3.94q.49 0 1 .12a10 10 0 0 0-3.61-2.25c-.45-.16-2.48-.81-4.93-1.01q-.63-.05-1.3-.05c-1.76 0-3.62.3-5.22 1.22-4.9 2.83-7.87 10.5-9.2 14.18-3.44 9.63-8.36 11.09-12.2 11.09-1.5 0-2.8-.22-3.8-.27h-.1c-.96 0-1.75.74-1.82 1.66q-.02.23.02.48c.48 2.51 1.1 6.43.84 8.1-.39 2.33-2.12 5.55-4.12 8.65a7.7 7.7 0 0 1-4.25 3.2c-2.27.62-4.4 1.47-6.1 2.58-.94.58-5.16 3.26-6.5 5.91 4.66-2.83 15.88-3.75 20.72-3.75q1.29 0 1.91.09c15.8 2.09 25.2 2.83 25.2 2.83-.49 1.35-9.6 8.3-9.6 8.3s-17.8 1.44-27.38 2.27l-2.75.25q-2.2.2-4.22.2c-3.6 0-6.73-.45-9.13-1.26-2.63-.4-4.88-1.73-5.18-4.43l-.04-.32c-.22-3.46 2.11-9.91 9.38-21.85 4.88-8.03 8.45-13.07 10.93-16.24l.04-.04c3.37-4.3 4.74-5.06 4.74-5.06q.45-.24 1.08-.52l.68-.27q.36-.16.76-.3a34 34 0 0 1 4.12-1.2q.5-.12 1.01-.2h.02a2.5 2.5 0 0 0 2-2.35C37.48 25 39 17.34 39.6 14.78c1.48-6.15 2.96-12.24 10.18-12.24z" clip-rule="evenodd"/><path fill="url(#a)" d="m2.56 78.43.05.32c.29 2.7 2.54 4.02 5.17 4.43 3.3 1.1 8 1.55 13.36 1.05q1.21-.1 2.74-.24c9.58-.84 27.39-2.28 27.39-2.28s9.1-5.7 9.6-7.06c0 0-1.33-.29-3.82-.74a323 323 0 0 0-6.66-1.15 443 443 0 0 0-14.73-2.18c-2.58-.36-17.15.34-22.62 3.67 1.33-2.65 5.56-5.33 6.5-5.94a23 23 0 0 1 6.1-2.56 7.7 7.7 0 0 0 4.24-3.2c2-3.1 3.74-6.31 4.12-8.65.27-1.66-.36-5.58-.83-8.1a1.84 1.84 0 0 1 1.89-2.14c3.64.19 11.24 2.53 16-10.8 1.33-3.7 4.3-11.36 9.2-14.2 2-1.14 4.41-1.32 6.52-1.17 2.45.2 4.48.86 4.93 1.02a10 10 0 0 1 3.62 2.24 4.56 4.56 0 0 0-5.5 3.82c-.4 2.64-1 5.11-1.65 6.55-1.42 3.13-1.26 5.58-3.55 7.71-5.47 5.04-7.9 4.93-10.01 4.2 0 0 .4 1.7 2.8 2.37q1.29.3 2.44.31c.36 0 1.75.1 3.3.18a6.17 6.17 0 0 1 5.76 5.9c.27 5.98.5 15.08-.36 17.92-.13.38-4.36 9.01-6 11.85a50 50 0 0 1-1.47 2.43h8.5s.27-4.48.52-10.06a1154 1154 0 0 0 10.57 8.57s13.76-5.44 13.4-6.88c-.36-1.46-14.07-23.48-19.16-29.28a27 27 0 0 0-6.02-5.28 31 31 0 0 0 4.94-7.67c1.76-3.78 2.7-9.71 2.03-12l-.2-.6a50 50 0 0 0-1.04-2.58c-.94-2.16-2.25-5.1-4.14-6.95-5.2-5.03-12.88-8.6-20.5-8.72-7.4-.11-8.9 6.03-10.4 12.23C39 17.34 37.5 25 37.34 30.4a2.5 2.5 0 0 1-2 2.34h-.03q-.51.09-1 .2a34 34 0 0 0-4.12 1.22q-.4.13-.77.29-.36.13-.67.27-.65.28-1.08.52s-1.37.76-4.75 5.06l-.04.04a171 171 0 0 0-10.93 16.24c-7.26 11.94-9.6 18.39-9.38 21.85"/><path fill="url(#b)" d="M19.54 68.34a22 22 0 0 1 6.1-2.59 7.7 7.7 0 0 0 4.24-3.2c2-3.1 3.74-6.31 4.12-8.65.27-1.66-.36-5.58-.83-8.1a2 2 0 0 1-.03-.47c-.63 2.05-.6 5.1-1.26 6.97-3.73 11.2-11.67 15.23-12.34 16.04" style="mix-blend-mode:multiply"/><path fill="url(#c)" d="m2.56 78.43.05.32c.29 2.7 2.54 4.02 5.17 4.43 3.3 1.1 8 1.55 13.36 1.05q1.21-.1 2.74-.24c9.58-.83 27.39-2.27 27.39-2.27l5.78-7.8a323 323 0 0 0-6.66-1.15c-2.07 2.92-5.15 5.01-11.62 5.89-9.43 1.28-16.4 2.63-24.67 1.78-4.41-.45-7.65-2.46-7.31-5.2 1.1-9.7 11-27.84 16.08-34.9-2.48 3.17-6.05 8.2-10.93 16.24-7.26 11.94-9.6 18.39-9.38 21.85" style="mix-blend-mode:multiply"/><path fill="#fff" d="M77.96 84.26H33.82a1.06 1.06 0 0 1-1.06-1.06v-.65c0-.59.47-1.04 1.06-1.04h44.14c.58 0 1.06.45 1.06 1.04v.65c0 .58-.48 1.05-1.06 1.05"/><path fill="#fff" d="M68.63 84.26h-45.5a.75.75 0 0 1-.74-.75v-.63c0-.76.63-1.37 1.4-1.37h44.86v2.72q0 .03-.02.03"/><path fill="#fff" d="M68.63 84.26h-45.5a.75.75 0 0 1-.74-.75v-.63c0-.76.63-1.37 1.4-1.37h44.86v2.72q0 .03-.02.03"/><path fill="url(#d)" d="M102.76 84.26H50.77a1.48 1.48 0 0 1-1.35-2.07l15.34-35.44c.25-.54.76-.88 1.37-.88h51.99a1.47 1.47 0 0 1 1.35 2.07l-15.34 35.42c-.24.54-.76.9-1.37.9"/><path fill="#fff" d="M102.76 84.26H50.77a1.48 1.48 0 0 1-1.35-2.07l15.34-35.44c.25-.54.76-.88 1.37-.88h51.99a1.47 1.47 0 0 1 1.35 2.07l-15.34 35.42c-.24.54-.76.9-1.37.9"/><path fill="url(#e)" d="M105.3 84.26H53.31a1.48 1.48 0 0 1-1.35-2.07L67.3 46.75c.25-.54.77-.88 1.37-.88h51.99a1.48 1.48 0 0 1 1.35 2.07l-15.34 35.42c-.24.54-.76.9-1.37.9"/><path fill="url(#f)" d="M54.62 43.04s1.26 2.38 4.27 1.78c6.07-1.2 9.92-5.58 11.99-11.09 1.28-3.4 1.73-6.45 2.18-8.72.5-2.66 2.27-4.25 2.27-4.25a4.56 4.56 0 0 0-5.5 3.82 27 27 0 0 1-1.65 6.54c-1.42 3.13-1.26 5.58-3.55 7.71-5.47 5.04-7.9 4.93-10.01 4.2" style="mix-blend-mode:multiply"/><path fill="url(#g)" d="M35.06 43.67c3.64.18 11.24 2.52 16-10.82 1.33-3.69 4.3-11.35 9.2-14.19 2-1.14 4.4-1.32 6.52-1.17C53.5 14.93 50.86 24.74 45.51 34c-4.36 7.56-8.81 8.46-10.45 9.67" style="mix-blend-mode:multiply"/><path fill="url(#h)" d="M42.36 54.37c.16-2.79.3-5.64.27-7.37 0-.25.18-.45.43-.45s.45.18.45.42c.02 1.78-.14 4.66-.27 7.45a137 137 0 0 0-.25 6.6c0 .23-.2.43-.45.43a.43.43 0 0 1-.42-.42c0-1.67.1-4.1.24-6.66"/><path fill="url(#i)" d="M53.99 47.85c0-.25.18-.45.42-.45s.46.18.46.43c.04 2.83-.1 6-.23 9.08l-.18 3.96a.43.43 0 0 1-.43.43h-.02c-.22 0-.43-.23-.43-.45l.18-3.98c.14-3.06.27-6.2.23-9.02"/><defs><linearGradient id="a" x1="99.34" x2="82.69" y1="71.36" y2="-8.34" gradientUnits="userSpaceOnUse"><stop stop-color="#ff00c1"/><stop offset="1" stop-color="#f4ac24"/></linearGradient><linearGradient id="b" x1="44.92" x2="46.05" y1="70.8" y2="44.45" gradientUnits="userSpaceOnUse"><stop stop-color="#f4d63b" stop-opacity="0"/><stop offset="1" stop-color="#5c1cb2"/></linearGradient><linearGradient id="c" x1="1.73" x2="22.17" y1="52.92" y2="115.87" gradientUnits="userSpaceOnUse"><stop stop-color="#f4d63b" stop-opacity="0"/><stop offset="1" stop-color="#5c1cb2"/></linearGradient><linearGradient id="d" x1="74.97" x2="64.51" y1="41.92" y2="82.95" gradientUnits="userSpaceOnUse"><stop stop-color="#a76dfc"/><stop offset="1" stop-color="#5c1cb2"/></linearGradient><linearGradient id="e" x1="77.52" x2="67.05" y1="41.92" y2="82.95" gradientUnits="userSpaceOnUse"><stop stop-color="#a76dfc"/><stop offset="1" stop-color="#5c1cb2"/></linearGradient><linearGradient id="f" x1="92.78" x2="72.75" y1="51.21" y2="6.05" gradientUnits="userSpaceOnUse"><stop stop-color="#f4d63b" stop-opacity="0"/><stop offset="1" stop-color="#5c1cb2"/></linearGradient><linearGradient id="g" x1="42.02" x2="32.63" y1="6.15" y2="47.89" gradientUnits="userSpaceOnUse"><stop stop-color="#f4d63b" stop-opacity="0"/><stop offset="1" stop-color="#5c1cb2"/></linearGradient><linearGradient id="h" x1="-37.28" x2="-36.12" y1="48.69" y2="67.19" gradientUnits="userSpaceOnUse"><stop stop-color="#f4ac24"/><stop offset="1" stop-color="#ff00c1"/></linearGradient><linearGradient id="i" x1="-21.96" x2="-20.8" y1="47.72" y2="66.21" gradientUnits="userSpaceOnUse"><stop stop-color="#f4ac24"/><stop offset="1" stop-color="#ff00c1"/></linearGradient></defs></svg>