<svg xmlns="http://www.w3.org/2000/svg" fill="none" viewBox="0 0 1260 863"><path fill="url(#a)" fill-opacity=".06" d="M308.03 502.47h-92.58v96.77h92.58z"/><path fill="url(#b)" fill-opacity=".06" d="M678.35 212.18h-92.58v96.76h92.58z"/><path fill="url(#c)" fill-opacity=".06" d="M585.77 792.76h-92.58v96.77h92.58z"/><path fill="url(#d)" fill-opacity=".06" d="M956.08 599.23H863.5V696h92.58z"/><path fill="url(#e)" fill-opacity=".06" d="M678.35 502.47h-92.58v96.77h92.58z"/><path stroke="url(#f)" stroke-opacity=".2" d="M30.3-174.88H-62.3v96.76m92.58-96.76v96.76m0-96.76h92.58M-62.29-78.12H30.3m-92.58 0v96.77M30.3-78.12h92.58m-92.58 0v96.77m92.58-193.53v96.76m0-96.76h92.58m-92.58 96.76h92.58m-92.58 0v96.77m-92.58 0h-92.58m92.58 0h92.58m-92.58 0v96.76m-92.58-96.76v96.76m277.74-290.3v96.77m0-96.76h92.58m-92.58 96.76h92.58m-92.58 0v96.77m-92.58 0h92.58m-92.58 0v96.76m185.16-290.3v96.77m0-96.76h92.58m-92.58 96.76h92.58m-92.58 0v96.77m-92.58 0h92.58m-92.58 0v96.76m185.16-290.3v96.77m0-96.76h92.58M400.6-78.12h92.58m-92.58 0v96.77m-92.58 0h92.58m-92.58 0v96.76m185.16-290.3v96.77m0-96.76h92.58m-92.58 96.76h92.58m-92.58 0v96.77m-92.58 0h92.58m-92.58 0v96.76m185.16-290.3v96.77m0-96.76h92.58m-92.58 96.76h92.58m-92.58 0v96.77m-92.58 0h92.58m-92.58 0v96.76m185.16-290.3v96.77m0-96.76h92.57m-92.57 96.76h92.57m-92.57 0v96.77m-92.58 0h92.58m-92.58 0v96.76m185.15-290.3v96.77m0-96.76h92.58m-92.58 96.76h92.58m-92.58 0v96.77m-92.57 0h92.57m-92.57 0v96.76m185.15-290.3v96.77m0-96.76h92.58M863.5-78.12h92.58m-92.58 0v96.77m-92.58 0h92.58m-92.58 0v96.76m185.16-290.3v96.77m0-96.76h92.58m-92.58 96.76h92.58m-92.58 0v96.77m-92.58 0h92.58m-92.58 0v96.76m185.16-290.3v96.77m0-96.76h92.58m-92.58 96.76h92.58m-92.58 0v96.77m-92.58 0h92.58m-92.58 0v96.76m185.16-290.3v96.77m0-96.76h92.58m-92.58 96.76h92.58m-92.58 0v96.77m-92.58 0h92.58m-92.58 0v96.76m185.16-290.3v96.77m0-96.76h92.58v96.76m-92.58 0h92.58m-92.58 0v96.77m-92.58 0h92.58m-92.58 0v96.76M1326.4-78.12v96.77m-92.58 0h92.58m-92.58 0v96.76m92.58-96.76v96.76m-1296.1 0H-62.3m92.58 0h92.58m-92.58 0v96.77m-92.58-96.77v96.77m185.16-96.77h92.58m-92.58 0v96.77m92.58-96.77h92.58m-92.58 0v96.77m92.58-96.77h92.58m-92.58 0v96.77m92.58-96.77h92.58m-92.58 0v96.77m92.58-96.77h92.58m-92.58 0v96.77m92.58-96.77h92.58m-92.58 0v96.77m92.58-96.77h92.58m-92.58 0v96.77m92.58-96.77h92.58m-92.58 0v96.77m92.58-96.77h92.57m-92.57 0v96.77m92.57-96.77h92.58m-92.58 0v96.77m92.58-96.77h92.58m-92.58 0v96.77m92.58-96.77h92.58m-92.58 0v96.77m92.58-96.77h92.58m-92.58 0v96.77m92.58-96.77v96.77m-1296.1 0H-62.3m92.58 0h92.58m-92.58 0v96.76m-92.58-96.76v96.76m185.16-96.76h92.58m-92.58 0v96.76m92.58-96.76h92.58m-92.58 0v96.76m92.58-96.76h92.58m-92.58 0v96.76m92.58-96.76h92.58m-92.58 0v96.76m92.58-96.76h92.58m-92.58 0v96.76m92.58-96.76h92.58m-92.58 0v96.76m92.58-96.76h92.57m-92.57 0v96.76m92.57-96.76h92.58m-92.58 0v96.76m92.58-96.76h92.58m-92.58 0v96.76m92.58-96.76h92.58m-92.58 0v96.76m92.58-96.76h92.58m-92.58 0v96.76m92.58-96.76h92.58m-92.58 0v96.76m92.58-96.76h92.58m-92.58 0v96.76m92.58-96.76v96.76m-1296.1 0H-62.3m92.58 0h92.58m-92.58 0v96.77m-92.58-96.77v96.77m185.16-96.77h92.58m-92.58 0v96.77m92.58-96.77h92.58m-92.58 0v96.77m92.58-96.77h92.58m-92.58 0v96.77m92.58-96.77h92.58m-92.58 0v96.77m92.58-96.77h92.58m-92.58 0v96.77m92.58-96.77h92.58m-92.58 0v96.77m92.58-96.77h92.57m-92.57 0v96.77m92.57-96.77h92.58m-92.58 0v96.77m92.58-96.77h92.58m-92.58 0v96.77m92.58-96.77h92.58m-92.58 0v96.77m92.58-96.77h92.58m-92.58 0v96.77m92.58-96.77h92.58m-92.58 0v96.77m92.58-96.77h92.58m-92.58 0v96.77m92.58-96.77v96.77m-1296.1 0H-62.3m92.58 0h92.58m-92.58 0v96.76m-92.58-96.76v96.76m185.16-96.76h92.58m-92.58 0v96.76m92.58-96.76h92.58m-92.58 0v96.76m92.58-96.76h92.58m-92.58 0v96.76m92.58-96.76h92.58m-92.58 0v96.76m92.58-96.76h92.58m-92.58 0v96.76m92.58-96.76h92.58m-92.58 0v96.76m92.58-96.76h92.57m-92.57 0v96.76m92.57-96.76h92.58m-92.58 0v96.76m92.58-96.76h92.58m-92.58 0v96.76m92.58-96.76h92.58m-92.58 0v96.76m92.58-96.76h92.58m-92.58 0v96.76m92.58-96.76h92.58m-92.58 0v96.76m92.58-96.76h92.58m-92.58 0v96.76m92.58-96.76v96.76m-1296.1 0H-62.3m92.58 0h92.58m-92.58 0v96.76m-92.58-96.76v96.76m185.16-96.76h92.58m-92.58 0v96.76m92.58-96.76h92.58m-92.58 0v96.76m92.58-96.76h92.58m-92.58 0v96.76m92.58-96.76h92.58m-92.58 0v96.76m92.58-96.76h92.58m-92.58 0v96.76m92.58-96.76h92.58m-92.58 0v96.76m92.58-96.76h92.57m-92.57 0v96.76m92.57-96.76h92.58m-92.58 0v96.76m92.58-96.76h92.58m-92.58 0v96.76m92.58-96.76h92.58m-92.58 0v96.76m92.58-96.76h92.58m-92.58 0v96.76m92.58-96.76h92.58m-92.58 0v96.76m92.58-96.76h92.58m-92.58 0v96.76m92.58-96.76v96.76m-1296.1 0H-62.3m92.58 0h92.58m-92.58 0V696m-92.58-96.77V696m185.16-96.77h92.58m-92.58 0V696m92.58-96.77h92.58m-92.58 0V696m92.58-96.77h92.58m-92.58 0V696m92.58-96.77h92.58m-92.58 0V696m92.58-96.77h92.58m-92.58 0V696m92.58-96.77h92.58m-92.58 0V696m92.58-96.77h92.57m-92.57 0V696m92.57-96.77h92.58m-92.58 0V696m92.58-96.77h92.58m-92.58 0V696m92.58-96.77h92.58m-92.58 0V696m92.58-96.77h92.58m-92.58 0V696m92.58-96.77h92.58m-92.58 0V696m92.58-96.77h92.58m-92.58 0V696m92.58-96.77V696M30.3 696H-62.3m92.58 0h92.58m-92.58 0v96.76M-62.29 696v96.76M122.87 696h92.58m-92.58 0v96.76M215.45 696h92.58m-92.58 0v96.76M308.03 696h92.58m-92.58 0v96.76M400.61 696h92.58m-92.58 0v96.76M493.19 696h92.58m-92.58 0v96.76M585.77 696h92.58m-92.58 0v96.76M678.35 696h92.57m-92.57 0v96.76M770.92 696h92.58m-92.58 0v96.76M863.5 696h92.58m-92.58 0v96.76M956.08 696h92.58m-92.58 0v96.76m92.58-96.76h92.58m-92.58 0v96.76m92.58-96.76h92.58m-92.58 0v96.76m92.58-96.76h92.58m-92.58 0v96.76M1326.4 696v96.76m-1296.1 0H-62.3m92.58 0h92.58m-92.58 0v96.77m-92.58-96.77v96.77m185.16-96.77h92.58m-92.58 0v96.77m92.58-96.77h92.58m-92.58 0v96.77m92.58-96.77h92.58m-92.58 0v96.77m92.58-96.77h92.58m-92.58 0v96.77m92.58-96.77h92.58m-92.58 0v96.77m92.58-96.77h92.58m-92.58 0v96.77m92.58-96.77h92.57m-92.57 0v96.77m92.57-96.77h92.58m-92.58 0v96.77m92.58-96.77h92.58m-92.58 0v96.77m92.58-96.77h92.58m-92.58 0v96.77m92.58-96.77h92.58m-92.58 0v96.77m92.58-96.77h92.58m-92.58 0v96.77m92.58-96.77h92.58m-92.58 0v96.77m92.58-96.77v96.77m-1296.1 0H-62.3m92.58 0h92.58m-92.58 0v96.76m-92.58-96.76v96.76m185.16-96.76h92.58m-92.58 0v96.76m92.58-96.76h92.58m-92.58 0v96.76m92.58-96.76h92.58m-92.58 0v96.76m92.58-96.76h92.58m-92.58 0v96.76m92.58-96.76h92.58m-92.58 0v96.76m92.58-96.76h92.58m-92.58 0v96.76m92.58-96.76h92.57m-92.57 0v96.76m92.57-96.76h92.58m-92.58 0v96.76m92.58-96.76h92.58m-92.58 0v96.76m92.58-96.76h92.58m-92.58 0v96.76m92.58-96.76h92.58m-92.58 0v96.76m92.58-96.76h92.58m-92.58 0v96.76m92.58-96.76h92.58m-92.58 0v96.76m92.58-96.76v96.76m-1296.1 0H-62.3m92.58 0h92.58m-92.58 0v96.77m-92.58-96.77v96.77m185.16-96.77h92.58m-92.58 0v96.77m92.58-96.77h92.58m-92.58 0v96.77m92.58-96.77h92.58m-92.58 0v96.77m92.58-96.77h92.58m-92.58 0v96.77m92.58-96.77h92.58m-92.58 0v96.77m92.58-96.77h92.58m-92.58 0v96.77m92.58-96.77h92.57m-92.57 0v96.77m92.57-96.77h92.58m-92.58 0v96.77m92.58-96.77h92.58m-92.58 0v96.77m92.58-96.77h92.58m-92.58 0v96.77m92.58-96.77h92.58m-92.58 0v96.77m92.58-96.77h92.58m-92.58 0v96.77m92.58-96.77h92.58m-92.58 0v96.77m92.58-96.77v96.77m-1296.1 0H-62.3m92.58 0h92.58m-92.58 0v96.76m-92.58-96.76v96.76m185.16-96.76h92.58m-92.58 0v96.76m92.58-96.76h92.58m-92.58 0v96.76m92.58-96.76h92.58m-92.58 0v96.76m92.58-96.76h92.58m-92.58 0v96.76m92.58-96.76h92.58m-92.58 0v96.76m92.58-96.76h92.58m-92.58 0v96.76m92.58-96.76h92.57m-92.57 0v96.76m92.57-96.76h92.58m-92.58 0v96.76m92.58-96.76h92.58m-92.58 0v96.76m92.58-96.76h92.58m-92.58 0v96.76m92.58-96.76h92.58m-92.58 0v96.76m92.58-96.76h92.58m-92.58 0v96.76m92.58-96.76h92.58m-92.58 0v96.76m92.58-96.76v96.76m-1296.1 0H-62.3m92.58 0h92.58m-92.58 0v96.76m-92.58-96.76v96.76H30.3m92.58-96.76h92.58m-92.58 0v96.76m92.58-96.76h92.58m-92.58 0v96.76m92.58-96.76h92.58m-92.58 0v96.76m92.58-96.76h92.58m-92.58 0v96.76m92.58-96.76h92.58m-92.58 0v96.76m92.58-96.76h92.58m-92.58 0v96.76m92.58-96.76h92.57m-92.57 0v96.76m92.57-96.76h92.58m-92.58 0v96.76m92.58-96.76h92.58m-92.58 0v96.76m92.58-96.76h92.58m-92.58 0v96.76m92.58-96.76h92.58m-92.58 0v96.76m92.58-96.76h92.58m-92.58 0v96.76m92.58-96.76h92.58m-92.58 0v96.76m92.58-96.76v96.76h-92.58m-1203.53 0h92.58m0 0h92.58m0 0h92.58m0 0h92.58m0 0h92.58m0 0h92.58m0 0h92.58m0 0h92.57m0 0h92.58m0 0h92.58m0 0h92.58m0 0h92.58m0 0h92.58"/><defs><radialGradient id="a" cx="0" cy="0" r="1" gradientTransform="rotate(90.68 -165.55 430.9)scale(68.5865 119.024)" gradientUnits="userSpaceOnUse"><stop stop-color="#fff" stop-opacity=".8"/><stop offset="1" stop-color="#05041f"/></radialGradient><radialGradient id="b" cx="0" cy="0" r="1" gradientTransform="matrix(0 72.8153 -126.361 0 632.69 310.27)" gradientUnits="userSpaceOnUse"><stop stop-color="#fff" stop-opacity=".8"/><stop offset="1" stop-color="#05041f"/></radialGradient><radialGradient id="c" cx="0" cy="0" r="1" gradientTransform="rotate(91.98 -158.97 704.48)scale(70.317 122.039)" gradientUnits="userSpaceOnUse"><stop stop-color="#fff" stop-opacity=".8"/><stop offset="1" stop-color="#05041f"/></radialGradient><radialGradient id="d" cx="0" cy="0" r="1" gradientTransform="rotate(90.68 111.6 799.36)scale(68.5866 119.024)" gradientUnits="userSpaceOnUse"><stop stop-color="#fff" stop-opacity=".8"/><stop offset="1" stop-color="#05041f"/></radialGradient><radialGradient id="e" cx="0" cy="0" r="1" gradientTransform="matrix(0 74.5086 -129.299 0 632.75 599.84)" gradientUnits="userSpaceOnUse"><stop stop-color="#fff" stop-opacity=".8"/><stop offset="1" stop-color="#05041f"/></radialGradient><radialGradient id="f" cx="0" cy="0" r="1" gradientTransform="matrix(0 513.94 -491.711 0 632.83 551.46)" gradientUnits="userSpaceOnUse"><stop stop-color="#fff"/><stop offset="1" stop-color="#fff" stop-opacity="0"/></radialGradient></defs></svg>