<svg xmlns="http://www.w3.org/2000/svg" fill="none" viewBox="0 0 19 18"><path fill="#fff" d="M9.93 0a9 9 0 1 0 0 18 9 9 0 0 0 0-18m2.38 16.34h-.07a.4.4 0 0 1-.29-.1.4.4 0 0 1-.1-.29v-2.11a3 3 0 0 0-.11-.77 1.4 1.4 0 0 0-.4-.66 6 6 0 0 0 1.52-.35 2.88 2.88 0 0 0 1.76-1.85 5 5 0 0 0 .23-1.6 3 3 0 0 0-.2-1.11 3 3 0 0 0-.6-.96q.1-.21.13-.44.04-.22.04-.45 0-.3-.07-.58a4 4 0 0 0-.17-.57l-.08-.02h-.08q-.26 0-.5.08a4 4 0 0 0-.53.2l-.5.26-.43.27a7 7 0 0 0-3.86 0q-.2-.14-.43-.27l-.5-.26a3 3 0 0 0-.53-.2 2 2 0 0 0-.5-.08h-.08l-.08.02q-.1.28-.17.57-.06.28-.06.58 0 .23.03.45.04.23.12.44-.4.42-.59.96-.2.54-.2 1.1 0 .82.22 1.6.21.63.66 1.14.49.47 1.1.72.74.28 1.53.36a1.4 1.4 0 0 0-.34.47 2 2 0 0 0-.15.56q-.43.2-.88.2a1.3 1.3 0 0 1-.8-.22 2 2 0 0 1-.56-.62l-.22-.29-.28-.26a1 1 0 0 0-.33-.18 1 1 0 0 0-.36-.07h-.09l-.12.02-.1.05-.04.07a.3.3 0 0 0 .1.18q.1.09.18.13l.02.02q.15.11.29.25.12.1.22.24t.18.29l.17.35q.23.54.71.86.52.27 1.11.26l.4-.02.38-.07v1.3a.4.4 0 0 1-.4.4h-.05a7.71 7.71 0 1 1 4.75 0z"/></svg>