<svg fill="#fff" width="46" height="46" viewBox="0 0 1.38 1.38" xmlns="http://www.w3.org/2000/svg" data-name="Layer 1"><path d="M.69.129A.575.575 0 0 0 .508 1.25c.029.005.04-.012.04-.027l-.001-.107c-.144.027-.182-.035-.193-.068A.2.2 0 0 0 .295.967C.275.956.246.93.294.929a.12.12 0 0 1 .088.059.123.123 0 0 0 .167.047.12.12 0 0 1 .037-.077C.458.944.324.894.324.674A.22.22 0 0 1 .383.519.2.2 0 0 1 .389.367S.437.352.547.426a.54.54 0 0 1 .288 0C.945.351.993.367.993.367a.2.2 0 0 1 .006.152.22.22 0 0 1 .059.155c0 .221-.134.27-.262.284a.14.14 0 0 1 .039.106l-.001.158c0 .015.011.033.04.027A.575.575 0 0 0 .69.129"/></svg>