<svg width="130" height="130" viewBox="0 -37.57 130 130" xmlns="http://www.w3.org/2000/svg" preserveAspectRatio="xMidYMid"><path d="M77.675 18.915c-2.86 0-4.94 1.365-4.94 4.745 0 2.535 1.365 4.29 4.81 4.29 2.86 0 4.875-1.69 4.875-4.42 0-3.055-1.755-4.68-4.68-4.68m-5.655 23.725c-.65.845-1.365 1.69-1.365 2.73 0 2.08 2.665 2.665 6.24 2.665 2.99 0 7.085-.195 7.085-2.99 0-1.625-1.95-1.755-4.42-1.885zm15.275-23.53a8.45 8.45 0 0 1 1.885 5.2c0 5.72-4.485 9.1-10.985 9.1a19.5 19.5 0 0 1-4.095-.455l-1.69 2.73 5.07.325c8.97.585 14.235.845 14.235 7.67 0 5.915-5.2 9.295-14.235 9.295-9.36 0-12.935-2.405-12.935-6.435 0-2.34 1.04-3.575 2.86-5.265a3.25 3.25 0 0 1-2.275-3.38q.065-1.69 1.495-3.185l3.185-3.12c-2.535-1.235-4.42-3.9-4.42-7.735 0-5.915 3.9-10.01 11.83-10.01 2.21 0 3.575.195 4.745.52h10.075v4.42zm13.78-9.36c-2.925 0-4.68-1.69-4.68-4.68q.13-4.485 4.68-4.55 4.55.065 4.68 4.55c0 2.925-1.69 4.68-4.68 4.68M94.445 40.69v-4.095l2.665-.39c.715-.13.845-.26.845-1.04V20.02q.065-.845-.65-1.105l-2.795-.975.585-4.16h10.725v21.45c0 .845.065.91.845 1.04l2.665.39v4.095zm35.165-1.95a19.5 19.5 0 0 1-8.45 2.08c-6.175 0-8.45-2.47-8.45-8.32V18.915q.13-.52-.39-.52h-3.64V13.78c4.55-.52 6.37-2.795 6.89-8.45h4.94v7.345q-.13.52.39.52h7.28v5.135h-7.67v12.35c0 3.055.715 4.225 3.51 4.225a13 13 0 0 0 4.16-.845zM53.105 25.155 29.445 1.56a3.51 3.51 0 0 0-4.94 0L19.63 6.435l6.24 6.24a3.9 3.9 0 0 1 4.225.975 3.9 3.9 0 0 1 .975 4.29l6.045 5.98a3.9 3.9 0 0 1 4.29.975 4.16 4.16 0 0 1 0 5.85 4.16 4.16 0 0 1-6.76-4.485l-5.655-5.59v14.69l1.105.78a4.16 4.16 0 0 1 0 5.85 4.095 4.095 0 0 1-5.85 0 4.16 4.16 0 0 1 1.365-6.76V20.345a6.5 6.5 0 0 1-1.365-.91 4.55 4.55 0 0 1-.91-4.55l-6.11-6.11L1.04 25.025a3.51 3.51 0 0 0 0 4.94L24.635 53.56a3.51 3.51 0 0 0 4.94 0l23.53-23.53a3.51 3.51 0 0 0 0-4.94" fill="#FFF"/></svg>