<svg xmlns="http://www.w3.org/2000/svg" fill="none" viewBox="0 0 130 15"><path fill="#fff" fill-rule="evenodd" d="M30.85 10.71q.55-1.39.55-3.22t-.56-3.23-1.53-2.34A6 6 0 0 0 27.04.5a8 8 0 0 0-2.77-.48q-1.43 0-2.72.48a6 6 0 0 0-2.27 1.42q-.98.95-1.56 2.34t-.58 3.23.56 3.22 1.53 2.33a6 6 0 0 0 2.27 1.42q1.3.47 2.77.47a8 8 0 0 0 2.82-.47 6 6 0 0 0 2.26-1.42q.95-.93 1.5-2.33M20.73 9.38a7 7 0 0 1-.26-1.9q0-1.02.26-1.88.25-.86.74-1.46.49-.61 1.19-.95t1.6-.34q.9 0 1.61.33t1.2.93q.48.61.74 1.47.26.85.26 1.9 0 1.06-.26 1.9a4 4 0 0 1-.74 1.46 3 3 0 0 1-1.2.93q-.71.34-1.6.34-.91 0-1.61-.33a3 3 0 0 1-1.19-.94 4 4 0 0 1-.74-1.46" clip-rule="evenodd"/><path fill="#fff" d="M39.5 12.19q.68 0 1.13-.11t.71-.32.37-.46a2 2 0 0 0 .1-.6q0-.7-.65-1.16-.67-.47-2.28-1a17 17 0 0 1-1.4-.57 5 5 0 0 1-1.26-.8 4 4 0 0 1-.91-1.18q-.35-.69-.35-1.68t.37-1.78 1.05-1.35 1.66-.86 2.19-.3q1.44 0 2.5.31t1.73.68l-.93 2.54A9 9 0 0 0 42.2 3q-.74-.24-1.77-.24-1.16 0-1.66.32t-.5.98q0 .4.18.66.18.27.53.49t.78.39l.98.36q1.12.41 1.94.81.83.4 1.38.94t.81 1.26.27 1.75q0 2-1.4 3.1-1.4 1.11-4.24 1.11-.95 0-1.71-.11-.77-.12-1.36-.28a8 8 0 0 1-1-.35 8 8 0 0 1-.72-.35l.9-2.56q.65.35 1.59.63t2.3.28M59.34.35V3.1h-4.32v11.54H51.8V3.1h-4.32V.35zm3.58 14.3h3.23V.34h-3.23zm17.65 0a72 72 0 0 0-3-4.85 50 50 0 0 0-3.42-4.52v9.36h-3.18V.35h2.62q.68.68 1.5 1.67.83 1 1.7 2.12.85 1.12 1.7 2.33t1.59 2.32V.35h3.2v14.3zM95.08 2.82q-2.25 0-3.25 1.24t-1 3.42q0 1.05.24 1.9.25.86.75 1.48t1.24.96 1.73.34q.54 0 .92-.02.39-.02.67-.09V7.1h3.23v7.08q-.58.23-1.86.48-1.28.26-3.16.26-1.61 0-2.93-.5a6 6 0 0 1-2.24-1.44q-.93-.95-1.43-2.33-.51-1.38-.51-3.15 0-1.8.56-3.18.55-1.38 1.53-2.34A6 6 0 0 1 91.85.52a8 8 0 0 1 2.8-.5 11 11 0 0 1 3.23.44 7 7 0 0 1 1.52.65l-.93 2.58a9 9 0 0 0-1.52-.6 7 7 0 0 0-1.87-.26m9.04 11.81V.35h9.67v2.7h-6.45v2.8h5.72V8.5h-5.72v3.44h6.92v2.7z"/><path fill="#fff" fill-rule="evenodd" d="M127.28 1.33Q125.57.19 122.35.19q-.9 0-2.02.08t-2.18.29v14.08h3.23V9.42h1.59q.41.5.83 1.1a35 35 0 0 1 1.67 2.7l.8 1.42h3.6a37 37 0 0 0-.8-1.6 28 28 0 0 0-.9-1.56 35 35 0 0 0-.95-1.45q-.47-.69-.9-1.22 1.3-.54 1.99-1.48T129 4.9q0-2.42-1.72-3.56m-5.38 1.62q.28-.02.63-.02 1.55 0 2.35.44.8.45.8 1.5 0 1.1-.8 1.54-.78.46-2.6.46h-.9V2.99z" clip-rule="evenodd"/><path fill="#fff" d="M9.6.47h3.24V14.7H9.59V8.67H4.15v6.04H.9V.47h3.24V5.9h5.44z"/></svg>