<svg style="fill:#fff" xmlns="http://www.w3.org/2000/svg" viewBox="0 0 24 24" xml:space="preserve" width="24" height="24"><path d="M1.792 0a.36.36 0 0 0-.365.399l1.86 20.858c.02.22.209.448.422.507l7.891 2.191c.213.059.56.059.773 0l7.915-2.195a.62.62 0 0 0 .422-.507L22.573.399A.36.36 0 0 0 22.208 0zm16.82 4.784-.068.756-.049.547-.063.698a6 6 0 0 1-.031.299H8.643a.36.36 0 0 0-.365.399l.172 1.921c.02.22.216.399.437.399h8.92c.196 0 .343.16.325.356l-.068.756-.553 6.194-.055.624c-.011.123-.194.272-.406.331l-4.663 1.293-.392.108c-.003 0-.18-.047-.392-.106l-4.668-1.295a.62.62 0 0 1-.422-.507l-.3-3.372a.36.36 0 0 1 .366-.399h1.863c.221 0 .417.18.437.399l.118 1.32c.02.22.21.446.423.504l2.183.59.389.105.389-.105 2.187-.591a.62.62 0 0 0 .423-.504l.237-2.645a.36.36 0 0 0-.365-.399H6.458a.45.45 0 0 1-.437-.399l-.582-6.522-.068-.756c-.017-.196.149-.356.369-.356h12.502c.22 0 .387.16.369.356"/></svg>