<svg xmlns="http://www.w3.org/2000/svg" fill="none" viewBox="0 0 16 16"><path fill="#fff" d="M7.93 5.71a2.3 2.3 0 1 0 0 4.58 2.3 2.3 0 0 0 0-4.58m0-1.53a3.82 3.82 0 1 1 0 7.64 3.82 3.82 0 1 1 0-7.64m4.97-.19a.95.95 0 1 1-1.91 0 .96.96 0 1 1 1.9 0m-4.96-2.1c-1.89 0-2.2 0-3.07.04-.6.03-1 .11-1.38.26-.33.12-.57.28-.82.53a2 2 0 0 0-.54.83c-.14.37-.22.77-.25 1.37-.04.85-.05 1.14-.05 3.08 0 1.89 0 2.2.05 3.08.03.6.1 1 .25 1.37.13.33.28.57.54.83q.36.36.82.53c.38.15.78.23 1.38.26.84.04 1.14.04 3.07.04 1.9 0 2.2 0 3.08-.04.6-.03 1-.11 1.38-.26.32-.13.56-.28.82-.53.26-.26.41-.5.54-.83.14-.37.22-.78.25-1.37.04-.85.04-1.14.04-3.08 0-1.9 0-2.2-.04-3.08-.03-.6-.1-1-.25-1.37a2 2 0 0 0-.54-.83 2 2 0 0 0-.83-.53 4 4 0 0 0-1.37-.26c-.84-.04-1.14-.04-3.08-.04m0-1.53c2.08 0 2.34 0 3.15.05s1.37.16 1.86.35c.5.2.93.46 1.35.88q.6.58.88 1.36c.2.48.32 1.04.36 1.85s.04 1.07.04 3.15 0 2.33-.04 3.15-.17 1.36-.36 1.85q-.29.77-.88 1.36a4 4 0 0 1-1.35.88c-.49.19-1.04.31-1.86.35-.81.04-1.07.05-3.15.05-2.07 0-2.33-.01-3.14-.05a6 6 0 0 1-1.86-.35 4 4 0 0 1-1.35-.88A4 4 0 0 1 .7 13a6 6 0 0 1-.36-1.85C.3 10.34.3 10.08.3 8S.3 5.67.35 4.85.51 3.48.7 3q.29-.78.88-1.36A4 4 0 0 1 2.93.76 6 6 0 0 1 4.79.41C5.6.37 5.86.36 7.93.36z"/></svg>