<svg width="24" height="24" viewBox="0 -0.015 0.75 0.75" xmlns="http://www.w3.org/2000/svg"><path d="M.047.169C-.019.264-.011.388.04.489l.004.007.002.005.001.003.003.005.005.008.003.005.006.009.002.004.008.012.001.002.007.01.003.004.007.008.003.003.01.011.01.01.003.003.011.011.011.01.002.002.01.008.004.003.008.006.004.003.009.006.003.002.001.001.009.006.004.002.014.008.004.002.01.006.006.003.007.004.002.001.003.001.012.005.002.001.014.006.003.001.013.005.002.001L.3.707l.003.001.014.004h.001C.638.77.731.52.731.52.653.622.514.649.383.619L.368.615.364.614.35.609.348.608.336.603.333.602.32.596.317.595.306.59.303.588.294.584.288.581.278.575.274.573.26.565.256.563.246.557.243.555.234.548.23.545.222.538.218.535.208.526.207.525.196.515.193.512.185.504.182.501l-.01-.01V.49L.162.479.16.476.153.467.15.464.142.453A.34.34 0 0 1 .101.104z"/><path d="M.253.089a.23.23 0 0 0-.036.124.23.23 0 0 0 .029.111L.245.323l.022.036L.266.358a.1.1 0 0 0 .025.031L.302.4l.003.003.011.01.013.011.003.002.013.01.006.004.003.002.01.006.001.001.009.005.003.002.006.003h.001l.013.006L.4.466.41.47l.004.002.01.003.004.001.013.004h.001C.689.521.746.331.746.331.695.405.595.44.489.413L.471.408.461.405.457.403.446.399.443.398.43.392.424.389.42.387.412.382.41.381.4.375.397.373.391.369.378.359.375.357a.3.3 0 0 1-.1-.142L.274.213a.2.2 0 0 1-.011-.07Q.264.082.292.033L.291.034z"/><path d="M.426.029a.14.14 0 0 0-.024.08.2.2 0 0 0 .013.06V.168a.2.2 0 0 0 .111.105h.001l.006.002.003.001.008.002h.001C.681.304.718.208.728.194.696.241.641.252.574.236L.558.231.538.223l.001.001A.2.2 0 0 1 .505.203C.445.158.408.071.447.001z"/></svg>