<svg xmlns="http://www.w3.org/2000/svg" aria-label="JavaScript" viewBox="0 0 24 24" width="24" height="24"><path fill="#FFF" d="M.137 0h23.726A.137.137 0 0 1 24 .137v23.726a.137.137 0 0 1-.137.137H.137A.137.137 0 0 1 0 23.863V.137A.137.137 0 0 1 .137 0"/><path d="M15.188 17.344c.469.797 1.125 1.359 2.203 1.359.938 0 1.547-.469 1.547-1.125 0-.75-.609-1.031-1.641-1.5l-.563-.234c-1.641-.703-2.719-1.547-2.719-3.375 0-1.688 1.266-3 3.281-3 1.453 0 2.484.516 3.188 1.828l-1.734 1.125c-.375-.703-.797-.984-1.453-.984s-1.078.422-1.078.984c0 .656.422.938 1.406 1.359l.563.234c1.922.844 3 1.641 3 3.563 0 2.016-1.594 3.141-3.75 3.141-2.109 0-3.469-.984-4.125-2.297zm-7.969.188c.375.609.656 1.172 1.453 1.172.75 0 1.219-.281 1.219-1.406V9.516h2.25v7.688c0 2.344-1.359 3.375-3.375 3.375-1.828 0-2.859-.938-3.375-2.063z"/></svg>