<svg xmlns="http://www.w3.org/2000/svg" xmlns:xlink="http://www.w3.org/1999/xlink" width="512" zoomAndPan="magnify" viewBox="0 0 384 383.999986" height="512" preserveAspectRatio="xMidYMid meet" version="1.2"><defs><clipPath id="e5874671a4"><path d="M 5.640625 5.640625 L 378.359375 5.640625 L 378.359375 378.359375 L 5.640625 378.359375 Z M 5.640625 5.640625 "/></clipPath><clipPath id="835c3f670e"><path d="M 192 5.640625 C 89.078125 5.640625 5.640625 89.078125 5.640625 192 C 5.640625 294.921875 89.078125 378.359375 192 378.359375 C 294.921875 378.359375 378.359375 294.921875 378.359375 192 C 378.359375 89.078125 294.921875 5.640625 192 5.640625 Z M 192 5.640625 "/></clipPath></defs><g id="981b53c62e"><g clip-rule="nonzero" clip-path="url(#e5874671a4)"><g clip-rule="nonzero" clip-path="url(#835c3f670e)"><path style=" stroke:none;fill-rule:nonzero;fill:#2c0a71;fill-opacity:1;" d="M 5.640625 5.640625 L 378.359375 5.640625 L 378.359375 378.359375 L 5.640625 378.359375 Z M 5.640625 5.640625 "/></g></g><g style="fill:#ffffff;fill-opacity:1;"><g transform="translate(50.872095, 307.611295)"><path style="stroke:none" d="M 264.6875 0 L 201.40625 0 L 146.578125 -89.984375 L 73.109375 -89.984375 L 73.109375 0 L 17.578125 0 L 17.578125 -235.5 L 73.109375 -235.5 L 73.109375 -145.515625 L 146.921875 -145.515625 L 201.0625 -235.5 L 262.921875 -235.5 L 197.1875 -114.9375 Z M 264.6875 0 "/></g></g></g></svg>