<svg xmlns="http://www.w3.org/2000/svg" fill="none" viewBox="0 0 19 18"><path fill="#fff" d="M6.56 14.87H4.1V6.93h2.46zM6.81 4.4a1.44 1.44 0 1 0-2.89 0 1.44 1.44 0 0 0 2.89 0m8.96 6.11c0-2.13-.45-3.71-2.94-3.71-1.2 0-2 .6-2.33 1.22V6.93H8.1v7.94h2.4v-3.94c0-1.04.26-2.04 1.54-2.04 1.26 0 1.3 1.18 1.3 2.1v3.88h2.43zm3.16 5.39V2.11C18.93.95 18 0 16.83 0H3.04C1.88 0 .92.95.92 2.11v13.78c0 1.16.95 2.11 2.11 2.11h13.78c1.17 0 2.11-.95 2.11-2.11m-2.1-14.48c.38 0 .7.31.7.7v13.78a.7.7 0 0 1-.7.7H3.03a.7.7 0 0 1-.7-.7V2.11c0-.39.32-.7.7-.7z"/></svg>