<svg xmlns="http://www.w3.org/2000/svg" fill="none" viewBox="0 0 25 25"><g clip-path="url(#a)"><path fill="#fff" d="m11.74.28-.37.03A12.3 12.3 0 0 0 2.55 5.4a12 12 0 0 0-2.17 5.36c-.1.68-.1.88-.1 1.79s0 1.11.1 1.79a12.3 12.3 0 0 0 11 10.45c.36.04 1.97.04 2.34 0 1.65-.18 3.05-.59 4.43-1.3q.28-.13.22-.15l-2-2.68L14.41 18l-2.46-3.64-2.48-3.64s-.02 1.61-.02 3.59c-.01 3.45-.01 3.6-.06 3.68a.4.4 0 0 1-.2.21c-.08.04-.15.05-.51.05h-.42l-.1-.07a1 1 0 0 1-.17-.18l-.05-.1V13.1l.01-4.82.08-.09.17-.15C8.3 8 8.34 8 8.76 8c.49 0 .57.02.7.16l2.96 4.46 4.84 7.33 1.94 2.95.1-.07a13 13 0 0 0 2.52-2.2 12 12 0 0 0 2.9-6.28c.09-.68.1-.88.1-1.79s-.01-1.11-.1-1.79A12.3 12.3 0 0 0 13.75.31C13.53.3 11.94.26 11.74.28m5.03 7.42A.5.5 0 0 1 17 8c.02.06.02 1.4.02 4.4v4.31l-.77-1.16-.76-1.17v-3.13c0-2.03 0-3.17.02-3.23a.5.5 0 0 1 .24-.3c.1-.05.14-.05.51-.05.36 0 .42 0 .5.04"/></g><defs><clipPath id="a"><path fill="#fff" d="M.27.27h24.55v24.55H.27z"/></clipPath></defs></svg>