<svg width="24" height="24" viewBox="0 0 0.96 0.96" xmlns="http://www.w3.org/2000/svg"><path fill="#FFF" d="M.311.392H.192L.141.653h.061L.215.585h.058A.114.114 0 0 0 .389.466q0-.068-.077-.074zM.266.537H.228L.244.441h.042c.022 0 .039.01.039.029C.322.525.296.534.267.538M.528.393H.47L.483.325H.422L.371.586h.061L.461.441h.048c.023 0 .023.01.019.026L.506.586H.57L.592.454C.598.422.579.396.528.393m.215 0H.624L.573.654h.061L.647.586h.058A.114.114 0 0 0 .821.467q0-.068-.077-.074zM.698.538h-.04L.674.442h.042c.023 0 .039.01.039.029C.752.526.726.535.697.539"/></svg>