<svg xmlns="http://www.w3.org/2000/svg" fill="none" viewBox="0 0 62 31"><path fill="#006cff" fill-rule="evenodd" d="m40.3 10.4 19.45-1.33c1.31 0 2.25 1.33 1.5 2.27L47.59 30.23c-.37.19-.74.57-1.3.57H15.6a1.5 1.5 0 0 1-1.12-.76L.84 11.34c-.75-.94 0-2.45 1.3-2.27L21.6 10.4l8.23-9.07c.56-.75 1.87-.75 2.24 0l8.23 8.88zm4.11 17.37L31.7 23.05v4.72zm-14.21 0v-4.72l-12.72 4.72h12.9zm-1.5-5.66-12.9 4.72-9.35-13.22 22.44 8.3zm4.5 0 13.08 4.72 9.35-13.22-22.44 8.3zm-3-1.13V5.3L19.73 17 30.2 20.8zm1.5 0V5.3L42.36 17 31.7 20.8zm-15.15-5.1 2.43-2.65L7 12.48zm28.8 0-2.43-2.65 11.78-.75z" clip-rule="evenodd"/></svg>