<svg width="24" height="24" viewBox="0 -0.12 0.96 0.96" xmlns="http://www.w3.org/2000/svg"><path d="M.826.414H.83Q.868.414.9.43H.899a.1.1 0 0 1 .046.04.1.1 0 0 1 .014.05.06.06 0 0 1-.021.043.1.1 0 0 1-.024.015Q.907.58.906.576T.913.568A.06.06 0 0 0 .94.531V.527L.934.501A.1.1 0 0 0 .906.468.14.14 0 0 0 .844.447.2.2 0 0 0 .75.458h.001q.006.016.007.034a.07.07 0 0 1-.034.06Q.71.562.693.569H.692L.666.574Q.638.568.653.525A.1.1 0 0 1 .671.492.2.2 0 0 1 .704.458L.701.454.686.422V.421L.679.393.677.383.662.411Q.643.447.625.474L.621.481a.1.1 0 0 1 .01.041v.001a.07.07 0 0 1-.028.06L.575.598.573.599a.1.1 0 0 1-.036.008H.534L.513.602A.02.02 0 0 1 .509.581Q.527.556.545.536L.578.494.572.481.559.451V.45L.552.422.55.412.535.448Q.517.49.502.52.48.565.465.589L.462.593Q.444.621.428.621T.406.6A.1.1 0 0 1 .401.566V.563L.404.542v.002L.38.596.363.624V.623a.04.04 0 0 1-.025.01H.336a.03.03 0 0 1-.02-.008.1.1 0 0 1-.022-.039V.585A.1.1 0 0 1 .286.533.3.3 0 0 1 .3.466L.299.468.245.5v.002a.13.13 0 0 1 .012.066.2.2 0 0 1-.027.083V.65a.15.15 0 0 1-.069.059H.16A.14.14 0 0 1 .105.72.1.1 0 0 1 .069.715H.07A.04.04 0 0 1 .048.697.1.1 0 0 1 .036.661.1.1 0 0 1 .045.608v.001a.2.2 0 0 1 .069-.07h.001L.182.5.185.499.192.495.143.459A1 1 0 0 1 .057.392l.001.001A.16.16 0 0 1 .006.309V.308A.1.1 0 0 1 .017.246v.001A.3.3 0 0 1 .086.156.5.5 0 0 1 .19.081L.193.08A1 1 0 0 1 .302.024L.307.022A.4.4 0 0 1 .436 0a.24.24 0 0 1 .111.024L.546.023a.1.1 0 0 1 .055.064v.001a.14.14 0 0 1-.007.086V.173A.2.2 0 0 1 .54.252a.24.24 0 0 1-.082.053L.456.306A.3.3 0 0 1 .347.33H.346a.2.2 0 0 1-.07-.006h.001A.1.1 0 0 1 .239.303.1.1 0 0 1 .221.281Q.217.269.22.267T.225.266l.007.007a.1.1 0 0 0 .029.018h.001a.2.2 0 0 0 .051.008L.33.298H.329a.3.3 0 0 0 .13-.047L.458.252A.2.2 0 0 0 .534.176L.535.175A.08.08 0 0 0 .543.097v.001A.07.07 0 0 0 .492.064a.24.24 0 0 0-.1-.002h.002a.5.5 0 0 0-.138.046L.259.107Q.075.2.069.297v.001q0 .04.027.068a.4.4 0 0 0 .063.056L.16.423l.057.049.003.003.096-.052a.2.2 0 0 1 .039-.04.1.1 0 0 1 .044-.018h.002q.018.001.025.016A.1.1 0 0 1 .43.413L.427.428.431.425A.02.02 0 0 1 .45.423a.013.013 0 0 1 .01.016L.456.456.438.534.436.555l.002.009.006-.009.004-.01q.002 0 0 .002L.465.513Q.523.384.528.369L.537.341Q.539.338.549.335L.575.332q.021 0 .021.01L.594.349.585.382v.002a.1.1 0 0 0 .001.031V.414L.588.42a.1.1 0 0 0 .014.034V.453Q.62.423.636.392A.2.2 0 0 0 .659.343L.66.341l.008-.03v.002Q.67.309.681.306L.705.304h.001q.021 0 .022.01L.725.32.716.355v.001a.1.1 0 0 0 .002.031V.386v.006a.1.1 0 0 0 .015.035l.004.01A.2.2 0 0 1 .823.418h.001zM.183.631A.12.12 0 0 0 .217.548.1.1 0 0 0 .212.512v.001L.188.528a.4.4 0 0 0-.065.047.1.1 0 0 0-.031.05v.001Q.085.654.099.662a.04.04 0 0 0 .019.004L.139.661a.1.1 0 0 0 .045-.03zM.384.493.401.447Q.413.411.409.405T.395.403L.374.419.357.445.356.446a.1.1 0 0 0-.015.033V.48a.2.2 0 0 0-.009.06q.002.03.01.032T.361.55A.2.2 0 0 0 .379.508V.506L.385.491zm.166.08A.06.06 0 0 0 .587.521V.519L.57.54.54.573.539.575.54.577Q.541.578.549.574zM.679.545A.05.05 0 0 0 .718.494V.493q0-.009-.003-.017a.1.1 0 0 0-.028.037v.001Q.673.541.679.545"/></svg>