<svg width="24" height="24" viewBox="0 0 0.96 0.96" xmlns="http://www.w3.org/2000/svg"><path fill="#FFF" d="M.949.635A.1.1 0 0 0 .91.57.14.14 0 0 0 .826.542a.2.2 0 0 0-.073.011l-.02.008L.73.556Q.718.536.713.512.71.495.713.477L.722.444Q.725.435.717.433L.711.431a.1.1 0 0 0-.039.003.01.01 0 0 0-.009.009L.66.451Q.656.469.649.486.629.528.604.568L.598.577A.1.1 0 0 1 .585.543Q.58.523.585.502l.009-.03Q.597.465.59.462L.583.459a.1.1 0 0 0-.04.003Q.537.464.536.47.531.489.524.507L.46.65.445.679.44.686.438.682V.664L.45.611.462.567Q.464.56.46.554A.02.02 0 0 0 .435.551L.432.553.433.548A.1.1 0 0 0 .432.515Q.426.494.404.494l-.02.004a.15.15 0 0 0-.062.049L.316.552.251.588.227.601Q.218.591.208.583L.146.534Q.118.512.097.485A.1.1 0 0 1 .08.437.1.1 0 0 1 .097.374.2.2 0 0 1 .154.312a.6.6 0 0 1 .19-.101.3.3 0 0 1 .127-.014.1.1 0 0 1 .049.014.05.05 0 0 1 .026.028.1.1 0 0 1 .001.039.2.2 0 0 1-.039.068A.26.26 0 0 1 .4.414.3.3 0 0 1 .327.43a.14.14 0 0 1-.06-.007.1.1 0 0 1-.033-.022Q.231.397.227.399L.225.406Q.227.414.231.42q.01.016.026.025.03.018.065.018A.3.3 0 0 0 .424.45.25.25 0 0 0 .547.376.2.2 0 0 0 .599.268a.1.1 0 0 0-.01-.06.1.1 0 0 0-.047-.045A.2.2 0 0 0 .45.14H.42a.4.4 0 0 0-.114.023L.224.198a.5.5 0 0 0-.155.111.2.2 0 0 0-.051.081L.011.418Q.012.42.01.42v.013l.003.01a.14.14 0 0 0 .032.058q.033.036.071.063l.068.048.012.009-.01.005a1 1 0 0 0-.085.052.2.2 0 0 0-.042.043C.042.749.035.778.048.809q.006.014.018.023l.009.004.024.005h.023A.14.14 0 0 0 .191.816.16.16 0 0 0 .254.641L.251.633.248.625.3.595l.001.001-.003.009a.2.2 0 0 0-.009.068.13.13 0 0 0 .023.069c.012.017.04.017.052.001L.376.724.4.671.401.668.399.691a.1.1 0 0 0 .004.034q.004.015.02.017.01.001.018-.007a.1.1 0 0 0 .02-.024Q.483.672.503.632L.542.544.544.539l.009.035.016.038Q.574.62.568.626l-.05.062-.01.014-.004.01a.013.013 0 0 0 .01.015l.02.001A.1.1 0 0 0 .597.704.07.07 0 0 0 .623.633L.616.61A.01.01 0 0 1 .617.601 1 1 0 0 0 .668.514L.67.51a.2.2 0 0 0 .026.073l-.02.019a.13.13 0 0 0-.031.049Q.64.663.642.677.647.7.669.697A.12.12 0 0 0 .741.653Q.758.629.749.6L.744.584.765.577a.2.2 0 0 1 .11.006.08.08 0 0 1 .048.042Q.94.665.905.69L.898.695.896.7.9.702Q.911.701.92.694A.07.07 0 0 0 .948.65Q.947.649.949.648V.636Q.947.635.948.634zM.218.686a.12.12 0 0 1-.091.106.04.04 0 0 1-.02-.001Q.095.784.095.77.096.749.106.731A.1.1 0 0 1 .142.692l.07-.047.002-.001q.006.02.004.041zM.407.541.4.573a1 1 0 0 1-.04.105L.35.696.348.699Q.342.705.337.697L.332.677.331.663A.2.2 0 0 1 .359.57.1.1 0 0 1 .386.54L.398.535q.01-.003.009.008zm.129.164L.582.651C.584.671.55.711.536.705M.684.669l-.01.005Q.67.676.67.671L.671.666A.1.1 0 0 1 .706.61L.707.609a.05.05 0 0 1-.022.06z"/></svg>