<svg width="130" height="130" viewBox="0 -50.654 130 130" xmlns="http://www.w3.org/2000/svg" preserveAspectRatio="xMidYMid"><path d="M18.821 1.469a3.036 3.036 0 0 0-5.201 0L9.341 8.797a20.94 20.94 0 0 1 11.541 17.334h-3.004A18 18 0 0 0 7.826 11.359l-3.959 6.846a10.35 10.35 0 0 1 6.001 7.913H2.969a.494.494 0 0 1-.403-.722l1.912-3.251a7 7 0 0 0-2.185-1.235L.402 24.16a2.95 2.95 0 0 0 1.099 4.057 3 3 0 0 0 1.469.39h9.447a12.61 12.61 0 0 0-5.201-11.254l1.501-2.601a15.52 15.52 0 0 1 6.697 13.855h8.004A23.33 23.33 0 0 0 12.749 7.931l3.036-5.201a.5.5 0 0 1 .682-.175c.345.189 13.192 22.606 13.433 22.867a.494.494 0 0 1-.442.735h-3.095q.058 1.242 0 2.477h3.108a2.985 2.985 0 0 0 3.004-2.997 2.9 2.9 0 0 0-.403-1.483zm61.974 16.917L71.199 5.995h-2.393v16.612h2.425V9.876l9.87 12.73h2.12V5.994h-2.425zm-24.167-3.082h8.602v-2.159h-8.608V8.147h9.707V5.988H54.152v16.618h12.301v-2.158h-9.83zm-10.117-2.107c-3.349-.806-4.285-1.443-4.285-2.991 0-1.391 1.229-2.334 3.062-2.334a7.85 7.85 0 0 1 4.597 1.658l1.3-1.84a9.17 9.17 0 0 0-5.851-1.951c-3.29 0-5.585 1.951-5.585 4.727 0 2.991 1.951 4.024 5.5 4.889 3.16.728 4.129 1.404 4.129 2.919s-1.3 2.451-3.309 2.451a8.02 8.02 0 0 1-5.396-2.12l-1.463 1.749a10.36 10.36 0 0 0 6.775 2.503c3.563 0 5.852-1.918 5.852-4.883-.02-2.51-1.502-3.856-5.325-4.779m80.692-7.2-5 7.802-4.967-7.802h-2.9l6.56 10.045v6.574h2.497v-6.652L130 5.994zm-42.02 2.25h5.442v14.369h2.497V8.244h5.442v-2.25H85.191zm24.928 7.88c2.51-.696 3.901-2.451 3.901-4.961 0-3.192-2.334-5.201-6.099-5.201h-7.386v16.638h2.471v-5.97h4.194l4.213 5.982h2.887l-4.552-6.385zm-7.12-1.626V8.192h4.662c2.432 0 3.823 1.151 3.823 3.147s-1.489 3.16-3.797 3.16z" fill="#fff"/></svg>