<svg xmlns="http://www.w3.org/2000/svg" fill="none" viewBox="0 0 114 26"><path fill="#fff" fill-rule="evenodd" d="m11.06 20.96.56-.74c.37-.19.37-.56.37-.93s0-.75-.56-1.12c-.18-.37-.56-.56-1.12-.74a53 53 0 0 1-5.4-1.5l-2.06-1.3c-.74-.36-1.12-.92-1.49-1.48L.8 10.92q0-1.4.56-2.23c.37-.75.93-1.5 1.68-1.86a5.5 5.5 0 0 1 2.24-1.3 8.4 8.4 0 0 1 5.4 0c.75 0 1.5.37 2.24.92l1.5 1.5c.56.55.74 1.3.93 1.85l-3.92 1.12c0-.56-.56-1.12-1.12-1.5a3.7 3.7 0 0 0-2.23-.73 4 4 0 0 0-2.24.37l-.75.74-.37.93.37.93.93.75 1.12.37 1.12.37L12 14.27l2.43 1.3c.56.56.93 1.11 1.12 1.86.37.37.37 1.11.37 1.86 0 .93 0 1.86-.56 2.42-.37.74-.93 1.48-1.68 2.04s-1.68 1.12-2.61 1.3c-.93.37-2.05.56-3.17.56a8.6 8.6 0 0 1-4.85-1.3 7 7 0 0 1-2.8-3.35l3.73-1.49c.38.93.94 1.5 1.68 1.86.56.38 1.5.56 2.43.56 1.12 0 1.86-.37 2.8-.93zm18.65 4.1-3.55.74c-1.12 0-2.05 0-2.98-.56a4.8 4.8 0 0 1-2.24-2.05c-.56-.93-.74-2.42-.74-4.28v-9.3h-3.55V5.34h.94c1.12 0 2.23-.19 2.8-1.3.37-.38.37-.93.37-2.24V.32h3.73v5.02h4.1V9.8H24.3v11.35l.93.93 1.5.18h2.23zm13.05-16-.56-.37h-.93l-.56-.19a6.5 6.5 0 0 0-4.29 1.49l-1.12 1.49c-.37.55-.37 1.3-.37 1.86V25.8h-4.29V5.34H34l.74 2.42a4.4 4.4 0 0 1 2.24-1.86 7.5 7.5 0 0 1 3.54-.94l3.17.38-1.11 3.72zM53.4 25.6a10.7 10.7 0 0 1-5.79-1.73 10.6 10.6 0 0 1-3.9-4.6 10 10 0 0 1-.94-4.08 10.4 10.4 0 0 1 1.68-5.65 10.4 10.4 0 0 1 4.48-3.84 10.3 10.3 0 0 1 7.64 0 6.6 6.6 0 0 1 2.99 2.05 8 8 0 0 1 2.05 3.72c.56 1.67.74 3.34.74 5.58h-15.1c0 .74.37 1.3.93 1.86a7.3 7.3 0 0 0 3.36 2.79l2.42.37a7.7 7.7 0 0 0 5.22-2.05l2.61 2.42a11 11 0 0 1-3.73 2.23c-1.3.56-2.98.93-4.66.93M52.65 8.5c-.56 0-1.3 0-1.87.37a6 6 0 0 0-2.8 2.6c-.37.56-.74 1.3-.74 1.87h10.63c0-.56 0-1.12-.37-1.86a5 5 0 0 0-2.04-2.3 5 5 0 0 0-3-.68zm31.7-3.16V25.6h-3.36l-.74-2.79a4.8 4.8 0 0 1-2.61 2.05 7.3 7.3 0 0 1-3.36.74A10 10 0 0 1 67 22.63a10.59 10.59 0 0 1 0-14.88 10.3 10.3 0 0 1 7.27-2.97 9 9 0 0 1 3.17.74 7.4 7.4 0 0 1 2.8 1.86l.74-2.04h3.55zM74.28 22.08l2.24-.56c.74-.37 1.49-.93 1.86-1.49a7 7 0 0 0 1.87-4.83 7.4 7.4 0 0 0-1.87-4.84 5 5 0 0 0-1.86-1.49 5.2 5.2 0 0 0-4.67 0L70 10.36a7 7 0 0 0-1.87 4.84A7.4 7.4 0 0 0 70 20.03l1.86 1.49c.75.37 1.5.56 2.43.56m17.34 3.53h-4.1V5.15h3.17l.93 1.86a5 5 0 0 1 1.87-1.49c.56-.37 1.49-.74 2.42-.74a7 7 0 0 1 4.48 1.67l1.3 1.5a7.5 7.5 0 0 1 2.05-2.24 5.6 5.6 0 0 1 3.17-.93l2.43.37a6.7 6.7 0 0 1 4.1 3.72 14 14 0 0 1 .56 4.28V25.6h-3.73V13.15c0-1.86-.56-2.98-1.3-3.72-.56-.56-1.68-.93-2.8-.93-.94 0-1.87.37-2.43 1.11s-.93 1.86-.93 3.54V25.6h-3.92V13.15c0-1.86-.37-2.98-1.12-3.72a4.6 4.6 0 0 0-2.8-.93c-.92 0-1.67.37-2.23.93a4 4 0 0 0-1.12 2.97z" clip-rule="evenodd"/></svg>