<svg xmlns="http://www.w3.org/2000/svg" fill="none" viewBox="0 0 30 15"><g clip-path="url(#a)"><path fill="#006cff" fill-rule="evenodd" d="m19.14 5.4 9.41-.6c.64 0 1.1.6.73 1.03l-6.6 8.56c-.19.08-.37.26-.64.26H7.19a1 1 0 0 1-.31-.11 1 1 0 0 1-.23-.24L.05 5.83c-.37-.43 0-1.11.62-1.03l9.42.6 3.98-4.1c.27-.35.9-.35 1.09 0l3.98 4.02zm2 7.88-6.16-2.14v2.14zm-6.89 0v-2.14L8.1 13.28h6.24zm-.72-2.57-6.25 2.14-4.52-6 10.86 3.77zm2.17 0 6.34 2.14 4.52-6-10.86 3.77zm-1.45-.51V3.1L9.18 8.4l5.07 1.71zm.73 0V3.1l5.16 5.3-5.16 1.71zM7.65 7.89l1.17-1.2-5.8-.35zm13.93 0-1.17-1.2 5.7-.35z" clip-rule="evenodd"/></g><defs><clipPath id="a"><path fill="#fff" d="M.2.9h28.97v13.7H.2z"/></clipPath></defs></svg>