<svg xmlns="http://www.w3.org/2000/svg" fill="none" viewBox="0 0 27 16"><path fill="#38bdf8" fill-rule="evenodd" d="M13.52.25Q8.38.25 7.1 5.42q1.93-2.59 4.5-1.94c.97.25 1.67.96 2.44 1.75C15.3 6.5 16.75 8 19.94 8q5.12 0 6.4-5.17-1.92 2.59-4.48 1.94c-.98-.24-1.68-.96-2.45-1.75C18.15 1.74 16.7.25 13.51.25M7.1 8Q1.97 8 .68 13.17q1.93-2.59 4.5-1.94c.97.24 1.67.96 2.44 1.75 1.26 1.28 2.71 2.77 5.9 2.77q5.13 0 6.41-5.17-1.92 2.59-4.49 1.94c-.98-.25-1.67-.96-2.45-1.75C11.75 9.5 10.29 8 7.1 8" clip-rule="evenodd"/></svg>