<svg xmlns="http://www.w3.org/2000/svg" fill="none" viewBox="0 0 24 24"><g clip-path="url(#a)"><path fill="#fff" d="M6.44 23.31.75.7l22.5 6.32"/><path stroke="#000" stroke-miterlimit="10" stroke-width=".48" d="m9.22 13.59 1.42 5.66m4.2-4.07-5.62-1.59m1.42 5.66 4.2-4.07m-4.2 4.07-5.62-1.6m0 0 1.43 5.67 4.19-4.07m-5.61-1.6 4.19-4.06m0 0 4.2-4.07m0 0 4.19-4.07m-5.62-1.6 1.42 5.67m0 0L7.8 7.93m0 0 1.42 5.66m0 0L3.6 12m0 0 1.43 5.66M2.18 6.34 3.6 12m4.2-4.07L2.18 6.34M3.6 12l4.2-4.07m0 0L12 3.86m0 0-5.62-1.6m0 0L7.8 7.94M2.18 6.34.76.68l5.62 1.59m-4.2 4.07 4.2-4.07m12.65 8.84 4.19-4.07-5.61-1.6m0 0 1.42 5.67m0 0L13.4 9.5m0 0 1.42 5.67m0 0 4.2-4.07M17.6 5.45l-5.62-1.6"/></g><defs><clipPath id="a"><path fill="#fff" d="M0 0h24v24H0z"/></clipPath></defs></svg>