<svg xmlns="http://www.w3.org/2000/svg" fill="none" viewBox="0 0 24 24"><g clip-path="url(#a)"><path fill="#3178c6" d="M20.4 0H3.6A3.6 3.6 0 0 0 0 3.6v16.8A3.6 3.6 0 0 0 3.6 24h16.8a3.6 3.6 0 0 0 3.6-3.6V3.6A3.6 3.6 0 0 0 20.4 0"/><path fill="#fff" d="M10.92 13.31h3V11.4H5.53v1.92h3v8.58h2.4zm3.94 8.11q.57.3 1.36.44a9 9 0 0 0 1.64.15q.83 0 1.6-.16a4 4 0 0 0 1.3-.52q.6-.35.9-.98c.3-.63.33-.9.33-1.5q0-.64-.2-1.13a2 2 0 0 0-.56-.84 4 4 0 0 0-.84-.66 11 11 0 0 0-1.12-.56l-.85-.37a4 4 0 0 1-.6-.36 2 2 0 0 1-.4-.4 1 1 0 0 1-.15-.47q0-.24.13-.43.13-.2.35-.34.23-.14.56-.21.33-.08.75-.08.3 0 .61.05.33.04.66.13.33.1.66.23.31.14.56.33v-2.2a6 6 0 0 0-1.17-.31 9 9 0 0 0-1.46-.1q-.82 0-1.59.18a4 4 0 0 0-1.31.56q-.55.36-.9.99-.32.57-.32 1.4 0 1.06.6 1.78c.41.52 1.04.9 1.84 1.27l.89.39a4 4 0 0 1 .7.4q.3.2.47.44.18.24.18.56 0 .22-.11.42a1 1 0 0 1-.33.34q-.22.15-.57.22a3 3 0 0 1-.8.08 4 4 0 0 1-1.5-.26 4 4 0 0 1-1.31-.73z"/></g><defs><clipPath id="a"><path fill="#fff" d="M0 0h24v24H0z"/></clipPath></defs></svg>