<svg xmlns="http://www.w3.org/2000/svg" fill="none" viewBox="0 0 17 14"><path fill="#fff" d="M11.45 2.07a2.2 2.2 0 0 0-2.21 2.18l-.02 1.2a.46.46 0 0 1-.52.45l-1.2-.17A9 9 0 0 1 3 3.6c-.46 2.52.43 4.28 2.58 5.63l1.33.84a.46.46 0 0 1 .03.75l-1.22.9c.72.04 1.41 0 1.98-.1 3.6-.73 6-3.44 6-7.91 0-.37-.77-1.64-2.25-1.64M7.71 4.22a3.74 3.74 0 0 1 6.4-2.56c.55 0 1.01.13 2.05-.5-.26 1.26-.39 1.8-.93 2.55 0 5.84-3.59 8.68-7.23 9.4-2.5.5-6.13-.32-7.17-1.4.53-.05 2.69-.28 3.93-1.19-1.05-.7-5.24-3.16-2.49-9.8Q4.21 3 6.21 3.81c.88.36 1.1.35 1.5.41"/></svg>