<svg width="130" height="130" viewBox="0 -50.273 130 130" xmlns="http://www.w3.org/2000/svg" preserveAspectRatio="xMidYMid"><path d="M64.853 7.357c-5.076 0-8.736 3.311-8.736 8.277s4.12 8.277 9.196 8.277c3.067 0 5.771-1.214 7.445-3.26l-3.518-2.032c-.929 1.016-2.341 1.609-3.927 1.609-2.202 0-4.074-1.149-4.768-2.989h12.884a8.3 8.3 0 0 0 .161-1.61c0-4.961-3.66-8.272-8.737-8.272m-4.35 6.668c.575-1.835 2.147-2.989 4.345-2.989 2.203 0 3.775 1.154 4.345 2.989zm53.863-6.668c-5.076 0-8.737 3.311-8.737 8.277s4.12 8.277 9.196 8.277c3.067 0 5.771-1.214 7.445-3.26l-3.518-2.032c-.929 1.016-2.34 1.609-3.927 1.609-2.203 0-4.074-1.149-4.768-2.989h12.884a8.3 8.3 0 0 0 .161-1.61c0-4.961-3.66-8.272-8.736-8.272m-4.345 6.668c.575-1.835 2.147-2.989 4.345-2.989 2.202 0 3.775 1.154 4.345 2.989zm-17.947 1.609c0 2.759 1.803 4.598 4.598 4.598 1.894 0 3.315-.86 4.047-2.262l3.531 2.037c-1.462 2.437-4.203 3.904-7.578 3.904-5.081 0-8.736-3.311-8.736-8.277s3.66-8.277 8.736-8.277c3.375 0 6.111 1.467 7.578 3.904l-3.531 2.037c-.731-1.403-2.152-2.262-4.047-2.262-2.791 0-4.598 1.839-4.598 4.598M130 2.299v21.152h-4.138V2.299zM16.99 0l16.99 29.428H0zm42.478 2.299L46.726 24.37 33.984 2.299h4.778l7.964 13.795L54.69 2.299zm27.088 5.518v4.456a5.3 5.3 0 0 0-1.471-.225c-2.672 0-4.598 1.839-4.598 4.598v6.805h-4.138V7.817h4.138v4.23c0-2.336 2.718-4.23 6.07-4.23" fill="#FFF"/></svg>