<svg xmlns="http://www.w3.org/2000/svg" fill="none" viewBox="0 0 16 16"><path fill="#fff" d="m4.3 12.96.56.32a6.11 6.11 0 1 0-2.2-2.2l.31.55-.5 1.83zm-4 2.68 1.03-3.8A7.64 7.64 0 1 1 4.1 14.6zM5.18 4.42h.43c.12.02.25.1.3.2q.34.77.66 1.55.07.19-.07.41l-.2.29-.27.31s-.08.1-.05.2q.03.07.08.16l.05.07q.29.5.77.97l.28.27a5 5 0 0 0 1.2.76l.2.09.14.05a.3.3 0 0 0 .28-.1l.61-.72a.4.4 0 0 1 .3-.1l.12.04 1.07.47.45.2q.12.07.14.2v.3a2 2 0 0 1-.15.55 1 1 0 0 1-.16.23l-.35.29-.29.17a2 2 0 0 1-.64.17q-.21.02-.42.01l-.44-.06A7 7 0 0 1 6.3 9.83l-.5-.47a7 7 0 0 1-1.5-2.1 3 3 0 0 1-.25-1.08 2 2 0 0 1 .43-1.28q.08-.1.2-.23a1 1 0 0 1 .22-.18 1 1 0 0 1 .29-.07"/></svg>